<svg xmlns="http://www.w3.org/2000/svg" width="638.642" height="480.171" viewBox="0 0 638.642 480.171">
  <g id="Group_243" data-name="Group 243" transform="translate(-9197.954 -359.905)">
    <path id="Path_7006" data-name="Path 7006" d="M9727.156,814.772s79.527-56.633,102.422-153.031-12.05-213.278-78.323-272.322-185.563-19.279-238.583,30.125l-53.018,49.4s-50.608,27.714-116.882,25.3-125.316,87.963-140.98,159.056,21.689,165.08,21.689,165.08Z" fill="#231f20" opacity="0.24"/>
    <path id="Path_7007" data-name="Path 7007" d="M9763.3,829.231s55.429-30.124,69.889-100.012-48.2-133.751-54.224-168.7,7.229-78.322-48.2-112.061-154.236-21.69-191.59-30.124-80.732-66.273-155.44-53.019-147,53.019-150.62,139.776,24.1,89.167-3.615,136.161-38.559,79.528-25.3,127.726,40.968,61.453,40.968,61.453Z" fill="#231f20" opacity="0.41"/>
    <path id="Path_7008" data-name="Path 7008" d="M9647.57,813.567c3.447-3.615,54.018-104.832-2.3-197.614s-197.685-81.938-254-45.789-83.9,83.143-89.646,132.546S9333.8,829.231,9333.8,829.231Z" fill="#d9edff" style="mix-blend-mode: multiply;isolation: isolate"/>
    <g id="Group_178" data-name="Group 178">
      <path id="Path_7009" data-name="Path 7009" d="M9666.355,797.3V688.853s1.2-29.22-14.158-37.655-80.13-3.916-80.13-3.916V797.3Z" fill="#58595b"/>
    </g>
    <g id="Group_215" data-name="Group 215" transform="translate(11.213 -10.845)">
      <g id="Group_179" data-name="Group 179">
        <path id="Path_7010" data-name="Path 7010" d="M9551.834,545.764s3.916,32.835,5.422,35.546l1.506,2.711,7.531,5.121s-14.459,20.485-32.232,23.8-16.267-7.229-16.267-7.229l2.711-5.724-3.615-31.329S9549.123,553.9,9551.834,545.764Z" fill="#ff9d8a"/>
      </g>
      <path id="Path_7011" data-name="Path 7011" d="M9575.632,591.853l-11.749-5.121s-7.531,12.351-25,19.581-17.772,3.012-18.677,0a11.458,11.458,0,0,1,.3-6.326l-1.293-10.547-6.987,2.328-24.254,196.193,62.357,3.013Z" fill="#fff"/>
      <g id="Group_180" data-name="Group 180">
        <path id="Path_7012" data-name="Path 7012" d="M9518.095,589.644s-4.218,9.741-8.134,32.635-7.531,61.453-8.434,87.962-1.508,87.059-1.508,87.059H9421.4c-.9,0-6.326-29.823-6.326-29.823s34.342-29.421,36.148-34.241c1.205-3.213.6-62.759,5.725-90.171s11.748-32.936,25.6-39.764C9496.87,596.244,9518.095,589.644,9518.095,589.644Z" fill="#414042"/>
      </g>
      <g id="Group_181" data-name="Group 181">
        <path id="Path_7013" data-name="Path 7013" d="M9477.127,762.783a.728.728,0,0,0,.729-.728c0-2.154.382-32.755.752-62.348s.753-60.2.753-62.366a.728.728,0,1,0-1.456,0c0,2.154-.382,32.754-.752,62.347s-.753,60.2-.753,62.367A.727.727,0,0,0,9477.127,762.783Z" fill="#939598"/>
      </g>
      <g id="Group_182" data-name="Group 182">
        <path id="Path_7014" data-name="Path 7014" d="M9633.771,755.427l.6,41.873H9542.8s-3.917-35.547-2.41-38.86S9633.771,755.427,9633.771,755.427Z" fill="#414042"/>
      </g>
      <g id="Group_183" data-name="Group 183" style="mix-blend-mode: multiply;isolation: isolate">
        <path id="Path_7015" data-name="Path 7015" d="M9531.851,580.406a47.834,47.834,0,0,1-12.812,6.882l-2.149-18.63s24.211-11.091,32.427-19.343C9547.6,558.691,9543.377,571.114,9531.851,580.406Z" fill="#7f99bd"/>
      </g>
      <g id="Group_184" data-name="Group 184">
        <path id="Path_7016" data-name="Path 7016" d="M9488.573,484.612a65.181,65.181,0,0,0-7.531,24.1c-1.205,13.254,0,47.295,10.845,61.754s33.438,10.243,43.681,1.507c9.4-8.018,18.677-16.87,21.087-34.342s-5.121-50.609-26.511-57.537S9488.573,484.612,9488.573,484.612Z" fill="#ff9d8a"/>
      </g>
      <g id="Group_192" data-name="Group 192">
        <g id="Group_185" data-name="Group 185">
          <path id="Path_7017" data-name="Path 7017" d="M9461.4,778.362s1.062,0,2.679-.044c.378-.014.8,0,1.237-.014,1.558-.044,3.45-.088,5.357-.146l1.282-.044c1.892-.043,3.509.19,5.022.1h.043c.321-.014.787.029,1.165.044a2.864,2.864,0,0,0,.481.015,7.083,7.083,0,0,0,1.994-.787c1.224-.553,17.778-4.251,31.246-4.164,13.454.058,25.523.976,27.49-.67,1.979-1.674,3.174-18.578-8.314-19.685l-14.123,5.358s-32.251-3.829-44.073,4.893C9461.034,771.941,9461.4,778.362,9461.4,778.362Z" fill="#ff9d8a"/>
        </g>
        <g id="Group_187" data-name="Group 187">
          <g id="Group_186" data-name="Group 186">
            <path id="Path_7018" data-name="Path 7018" d="M9477.02,778.216c.321-.014.787.029,1.165.044a13.685,13.685,0,0,1,1.238-1.66c3.641-3.713,12.435-6.115,15.623-6.887a.548.548,0,0,0,.408-.655.561.561,0,0,0-.67-.408c-4.646,1.122-14.5,3.99-17.3,8.693C9477.4,777.474,9477.166,777.925,9477.02,778.216Z" fill="#04377d"/>
          </g>
        </g>
        <g id="Group_189" data-name="Group 189">
          <g id="Group_188" data-name="Group 188">
            <path id="Path_7019" data-name="Path 7019" d="M9470.669,778.157c.422-.01.859-.021,1.281-.046,3.974-7.248,10.477-9.329,18.512-11.913l.477-.157a.56.56,0,0,0,.348-.693.553.553,0,0,0-.693-.348l-.462.157C9481.633,767.884,9474.8,770.075,9470.669,778.157Z" fill="#04377d"/>
          </g>
        </g>
        <g id="Group_191" data-name="Group 191">
          <g id="Group_190" data-name="Group 190">
            <path id="Path_7020" data-name="Path 7020" d="M9464.075,778.318c.379-.01.8-.005,1.238-.016,2.41-5.069,10.389-13.55,20.943-15.526a.548.548,0,0,0,.45-.638.563.563,0,0,0-.637-.435C9475.2,763.744,9466.427,772.624,9464.075,778.318Z" fill="#04377d"/>
          </g>
        </g>
      </g>
      <g id="Group_193" data-name="Group 193">
        <path id="Path_7021" data-name="Path 7021" d="M9549.424,522.719s-6.627-3.163-11.3-12.05a34.287,34.287,0,0,1-4.066-16.87s-8.435-1.355-21.087,2.41-27.714,8.887-40.366,1.657-12.652-18.827-6.477-23.647c6.916-5.4,20.635-2.109,20.635-2.109s-5.271-5.121-2.409-8.133,13.254.9,13.254.9,12.652-10.091,36.6-8.886,35.4,17.924,36.752,36.6-5.423,37.354-5.423,37.354Z"/>
      </g>
      <g id="Group_195" data-name="Group 195" style="mix-blend-mode: multiply;isolation: isolate">
        <g id="Group_194" data-name="Group 194">
          <path id="Path_7022" data-name="Path 7022" d="M9500.837,527.246c1.357,3.346,1.324,7.23,1.666,10.781.266,2.762.773,5.982-1.757,7.848-1.209.891-6.927,3.293-3.987,5.24,1.121.742,3,.54,4.277.48.879-.041,1.767-.077,2.645-.143.945-.071,1.871-.355,2.816-.36a.55.55,0,0,1,.276,1.017,11.892,11.892,0,0,1-5.525,1.315,8.35,8.35,0,0,1-4.573-.806,3.273,3.273,0,0,1-2.088-2.342,3.741,3.741,0,0,1,1.8-3.226c1.14-.844,2.536-1.238,3.687-2.061,1.595-1.142,1.464-3.065,1.352-4.845-.269-4.284-1.254-8.492-1.637-12.756-.06-.652.843-.652,1.05-.142Z" fill="#7f99bd"/>
        </g>
      </g>
      <g id="Group_196" data-name="Group 196">
        <path id="Path_7023" data-name="Path 7023" d="M9488.524,537.262c.449,2.54,2.3,4.336,4.126,4.012s2.947-2.645,2.5-5.184-2.3-4.335-4.126-4.012S9488.075,534.723,9488.524,537.262Z" fill="#414042"/>
      </g>
      <g id="Group_197" data-name="Group 197">
        <path id="Path_7024" data-name="Path 7024" d="M9511.574,535.251c.408,2.739,2.338,4.722,4.312,4.428s3.243-2.752,2.835-5.492-2.338-4.722-4.311-4.428S9511.167,532.511,9511.574,535.251Z" fill="#414042"/>
      </g>
      <g id="Group_199" data-name="Group 199">
        <g id="Group_198" data-name="Group 198">
          <path id="Path_7025" data-name="Path 7025" d="M9493.89,526.795c-1.407.238-2.828-.005-4.248.1-.342.024-.679.074-1.019.107-.242.023.451-.071.115-.016-.073.012-.146.023-.219.036-.178.032-.354.068-.53.111-.3.074-.6.188-.9.254a3.479,3.479,0,0,1-.856.111l-.465-.062.292.052a2.749,2.749,0,0,1-.576-.062,1.564,1.564,0,0,1-1.08-1.9,1.782,1.782,0,0,1,.307-.613c.061-.08.121-.159.186-.235l-.172.2c.061-.085.122-.167.188-.248a.893.893,0,0,1,.321-.321c.112-.087.224-.178.341-.259a4.13,4.13,0,0,1,1.306-.525,10.713,10.713,0,0,1,2.589-.332,18.064,18.064,0,0,1,2.563.2,4.934,4.934,0,0,1,2.2.812,1.456,1.456,0,0,1,.678,1.417,1.4,1.4,0,0,1-1.019,1.182Z" fill="#414042"/>
        </g>
      </g>
      <g id="Group_201" data-name="Group 201">
        <g id="Group_200" data-name="Group 200">
          <path id="Path_7026" data-name="Path 7026" d="M9509.958,522.766a5.864,5.864,0,0,1,.588-.3c.172-.078.638-.322.285-.13.128-.07.256-.14.387-.206a8.84,8.84,0,0,1,1.82-.652,12.076,12.076,0,0,1,4.23-.29,9.824,9.824,0,0,1,4.18,1.307,2.692,2.692,0,0,1,.526.373c.1.131.2.263.3.4l-.086-.131a1.487,1.487,0,0,1,.632,1.227,1.224,1.224,0,0,1-.652,1.085,1.841,1.841,0,0,1-1.463.011h.762a2.731,2.731,0,0,1-1.135-.011c-.015,0-.406-.1-.147-.046.241.051-.41-.05-.481-.06s-.536-.057-.058-.01c-.089-.009-.177-.02-.265-.031-.227-.028-.454-.056-.682-.074-.994-.08-1.985-.124-2.982-.157-.924-.031-1.865-.038-2.79,0-.4.017-.79.031-1.187.042-.223.006-.128.04.024-.007-.08.025-.166.04-.247.063-.165.046-.326.1-.486.16a1.387,1.387,0,0,1-1.65-.81,1.4,1.4,0,0,1,.572-1.747Z" fill="#414042"/>
        </g>
      </g>
      <g id="Group_202" data-name="Group 202">
        <path id="Path_7027" data-name="Path 7027" d="M9502.806,564.641a13.617,13.617,0,0,0-6.806-6.126c2.525-.257,14.441-1.36,17.448.347,3.369,1.913-.622,9.593-7.589,9.978a9.442,9.442,0,0,1-2.031-.118A10.025,10.025,0,0,0,9502.806,564.641Z" fill="#414042"/>
      </g>
      <g id="Group_203" data-name="Group 203">
        <path id="Path_7028" data-name="Path 7028" d="M9557.859,548.475s-1.205,4.669-8.135,10.091-16.97,9.389-16.97,9.389l-.8-3.514s10.393-4.519,15.213-9.49,5.422-7.681,5.422-7.681Z" fill="#d9e1eb"/>
      </g>
      <g id="Group_204" data-name="Group 204">
        <path id="Path_7029" data-name="Path 7029" d="M9530.747,561.841a8.71,8.71,0,0,0-9.077,7c-.389,2.852,2.291,6.051,8.558,3.241C9538.014,568.594,9536.322,562.1,9530.747,561.841Z" fill="#414042"/>
      </g>
      <g id="Group_205" data-name="Group 205">
        <path id="Path_7030" data-name="Path 7030" d="M9553.491,513.983s-2.408-17.312-14.008-29.07c-22.142-22.443-40.97-21.087-40.97-21.087s.151-3.163,7.23-5.573c6.646-2.263,9.64-1.054,9.64-1.054s18.226,1.506,33.588,18.526,17.021,38.709,17.021,38.709Z" fill="#d9e1eb"/>
      </g>
      <g id="Group_208" data-name="Group 208">
        <g id="Group_206" data-name="Group 206">
          <path id="Path_7031" data-name="Path 7031" d="M9555.147,511.874c14.5-2.459,22.593,8.887,23.2,20.334s-7.716,20.149-18.828,19.279C9534.512,549.529,9537.374,514.886,9555.147,511.874Z" fill="#fff"/>
        </g>
        <g id="Group_207" data-name="Group 207">
          <path id="Path_7032" data-name="Path 7032" d="M9562.37,540.363a9.886,9.886,0,0,0,8.915-5.313,11.019,11.019,0,0,0-.424-11.384.546.546,0,1,0-.9.616,9.916,9.916,0,0,1,.367,10.245,8.777,8.777,0,0,1-8.235,4.739,9.556,9.556,0,0,1-7.908-4.269,12.062,12.062,0,0,1-1.193-10.7c1.3-3.43,4.875-5.769,8.125-5.344a.546.546,0,1,0,.143-1.082c-3.8-.507-7.79,2.09-9.289,6.037a13.191,13.191,0,0,0,1.309,11.694,10.618,10.618,0,0,0,8.785,4.753C9562.165,540.361,9562.268,540.362,9562.37,540.363Z" fill="#708db5"/>
        </g>
      </g>
      <g id="Group_209" data-name="Group 209">
        <path id="Path_7033" data-name="Path 7033" d="M9572.921,587.636s43.981,10.845,59.344,28.317,22.594,103.627,22.895,119.592-10.844,22.594-17.473,27.112-35.847,12.652-59.344,13.857-45.789,0-45.789,0,.076-5.121-3.539-12.652c-3.353-6.985-7.606-8.435-7.606-8.435l20.184-7.229s3.534-63.327,9.037-93.988C9556.955,618.965,9572.921,587.636,9572.921,587.636Z" fill="#414042"/>
      </g>
      <g id="Group_210" data-name="Group 210">
        <path id="Path_7034" data-name="Path 7034" d="M9500.02,738.081a.72.72,0,0,0,.3-.063.728.728,0,0,0,.37-.96c-4.12-9.3-8.391-27.55-10.795-40.355l-.2-1.036c-.729-3.766-1.635-8.451.174-11.685.921-1.649,3-5.228,5-8.669,2.077-3.571,4.039-6.946,4.584-7.952,1.06-1.967-2.28-7.221-7.115-14.427-1.306-1.948-2.435-3.628-3.093-4.767-1.723-2.982-.576-5.713.752-8.877l.452-1.089c1.205-2.956,2.574-5.918,3.9-8.782q.812-1.755,1.616-3.519,1.059-2.336,2.135-4.743c4.258-9.489,8.66-19.3,14.3-28.781a.728.728,0,0,0-1.251-.744c-5.679,9.551-10.1,19.4-14.372,28.929q-1.078,2.4-2.134,4.739-.8,1.76-1.61,3.509c-1.33,2.878-2.705,5.856-3.922,8.843l-.447,1.075c-1.355,3.225-2.756,6.561-.67,10.168.683,1.181,1.822,2.882,3.144,4.85,2.521,3.758,7.769,11.58,7.043,12.923-.534.987-2.49,4.351-4.562,7.913-2.006,3.449-4.094,7.037-5.018,8.69-2.067,3.7-1.1,8.674-.333,12.672l.2,1.027c.876,4.664,5.516,28.541,10.9,40.677A.725.725,0,0,0,9500.02,738.081Z" fill="#939598"/>
      </g>
      <g id="Group_211" data-name="Group 211">
        <path id="Path_7035" data-name="Path 7035" d="M9542.947,740.641a.726.726,0,0,0,.517-.214c3.423-3.45,19.931-32.034,21.159-37.409.673-2.943-1.016-10.406-2.649-17.625-1.265-5.592-2.573-11.375-2.2-12.941.556-2.34,4.776-5.788,8.858-9.122,4.933-4.028,10.031-8.2,11.019-11.947,1.123-4.265.162-30.963-.473-48.629-.228-6.353-.408-11.37-.407-13.159a.728.728,0,0,0-.727-.729h0a.727.727,0,0,0-.728.728c0,1.816.18,6.845.408,13.212.594,16.512,1.586,44.148.52,48.207-.868,3.294-6,7.488-10.532,11.189-4.466,3.649-8.684,7.095-9.354,9.915-.45,1.892.777,7.317,2.2,13.6,1.522,6.731,3.249,14.358,2.65,16.98-1.205,5.27-17.411,33.319-20.774,36.706a.729.729,0,0,0,.518,1.241Z" fill="#939598"/>
      </g>
      <g id="Group_212" data-name="Group 212">
        <path id="Path_7036" data-name="Path 7036" d="M9602.141,728.14a.892.892,0,0,0,.1-.007.73.73,0,0,0,.619-.823c-.534-3.787-8.892-79.207-9.275-84.984a.719.719,0,0,0-.775-.678.729.729,0,0,0-.678.774c.385,5.786,8.751,81.3,9.286,85.092A.73.73,0,0,0,9602.141,728.14Z" fill="#939598"/>
      </g>
      <g id="Group_213" data-name="Group 213">
        <path id="Path_7037" data-name="Path 7037" d="M9542.194,748.624a.734.734,0,0,0,.273-.053c1.852-.751,10.033-3.511,20.392-7,20.9-7.051,49.537-16.705,54.98-19.535a.727.727,0,1,0-.671-1.291c-5.345,2.777-35.092,12.808-54.775,19.446-10.382,3.5-18.58,6.266-20.473,7.032a.729.729,0,0,0,.273,1.4Z" fill="#939598"/>
      </g>
      <g id="Group_214" data-name="Group 214">
        <path id="Path_7038" data-name="Path 7038" d="M9552.247,778.655c18.4,0,54.068-3.317,81.164-12.9a.728.728,0,1,0-.485-1.373c-34.229,12.109-82.115,14.176-91.023,12.175a.729.729,0,0,0-.319,1.422A58.039,58.039,0,0,0,9552.247,778.655Z" fill="#7591b7"/>
      </g>
    </g>
    <g id="Group_216" data-name="Group 216" opacity="0.5">
      <path id="Path_7039" data-name="Path 7039" d="M9771.239,580.68c-.06-4.178-.773-8.295-.733-12.492.04-4.085.444-8.155.517-12.237.074-4.2-.519-10.227-5.743-10.852-6.266-.749-12.881,4.836-15.864,9.844-1.4,2.353-2.44,5.2-1.907,7.967.468,2.431,1.928,4.507,3.13,6.619,1.286,2.257,2.164,4.574-.023,6.6-2.3,2.132-5.525,3.3-8.031,5.222-5.128,3.93-7.086,10.005-7.479,16.278-.279,4.446,0,8.919-.157,13.372s-.515,8.922-1.015,13.362c-.011.041-.032.079-.044.12-.255.969-.308,2.277-.054,1.311.577-2.192,4.134-5.086,5.466-6.83,1.832-2.4,3.6-4.829,5.576-7.116,5.011-5.808,12.245-9.029,17.958-14.053C9768.057,593.2,9771.341,587.785,9771.239,580.68Z" fill="#231f20"/>
      <path id="Path_7040" data-name="Path 7040" d="M9714.16,674.908c.676,2.158,1.755,4.559,1.938,6.835.056.679,7.5.209,9.938-.87a10.926,10.926,0,0,0,4.161-3.1c2.341-2.922,3.006-6.828,4.249-10.267a14.712,14.712,0,0,1,9.648-9.5,46.883,46.883,0,0,1,13.235-2.186c6.259-.189,14.306.828,16.883-6.466.858-2.429.638-4.867.441-7.384a12.106,12.106,0,0,1,1.315-7.313c2.232-4.01,5.367-7.5,7.8-11.405,2.283-3.667,4.2-7.681,4.391-12.068.149-3.5-.643-8.059-3.515-10.42-5.416-4.449-12.78,2.507-15.885,6.588-4.162,5.471-5.871,13.219-11.493,17.54a5.7,5.7,0,0,1-5.445.958,20.322,20.322,0,0,0-5.068-1.076,10.942,10.942,0,0,0-7.369,2.863c-3.435,3.012-5.658,7.349-7.5,11.452a135.312,135.312,0,0,0-4.854,13.505c-1.8,5.507-3.978,10.874-5.853,16.353-1.055,3.083-1.5,6.6-2.773,9.665.089-.7.164-1.4.247-2.063.4-3.3.692-6.616.936-9.932.265-3.608.4-7.186.381-10.8a52.994,52.994,0,0,0-1.839-16.533c-1.447-5.595-4.528-10.843-4.364-16.766.171-6.153,2.506-12.091,4.465-17.845,2.374-6.968,4.117-13.982,3.241-21.389-.285-2.413-.828-5.344-2.75-7.036-1.947-1.714-4.546-1.031-6.6.115-7.844,4.385-8.468,13.932-8.133,21.951.23,5.532,1.895,10.528,3,15.9.22,1.07,1.563,7.113.084,7.479-.87.215-1.792-1.358-2.082-2-.5-1.108-.874-2.278-1.269-3.425a76.854,76.854,0,0,0-3.312-8.719c-.779-1.6-1.983-4.116-4.01-4.376-2.605-.333-3.766,2.924-3.927,4.937-.335,4.2.909,8.373,1.062,12.561.207,5.7-.1,11.484,2.009,16.9,2.067,5.3,5.48,9.909,8.56,14.642A67.285,67.285,0,0,1,9709.764,663C9711.4,666.909,9712.893,670.859,9714.16,674.908Z" fill="#231f20"/>
      <path id="Path_7041" data-name="Path 7041" d="M9674.045,675.9a15.324,15.324,0,0,0,3.959,9.33c2.56,2.8,6.214,3.67,9.34,5.612,1.639,1.017,3.289,2.476,3.675,4.462.409,2.1-.788,3.96-1.8,5.691-1.847,3.154-3.62,6.2-4.043,9.9-.322,2.816-.025,5.974,2.129,8.045,2.832,2.722,7.342,3.081,10.738,4.813,7.519,3.834,13.029,10.086,17.554,17.049.385.593,1.5.208,1.2-.506-.1-.243-.22-.481-.33-.722a138.645,138.645,0,0,0-3.033-14.087c-1.146-4.673-1.891-9.415-2.8-14.135-1.356-7.011-2.75-14.346-5.676-20.907a16.687,16.687,0,0,0-4.65-6.413c-2.351-1.869-5.111-2.626-7.929-3.5-4.383-1.355-7.4-3.817-9.061-8.157a52.335,52.335,0,0,1-2.908-12.1c-.285-2.317-.144-4.647-.335-6.971-.115-1.4-.175-3.686-1.59-4.471a.569.569,0,0,0-.769.2c-1.975,3.829-1.851,8.425-2.5,12.595C9674.5,666.229,9673.694,671.231,9674.045,675.9Z" fill="#231f20"/>
      <path id="Path_7042" data-name="Path 7042" d="M9722.481,710.306a71.782,71.782,0,0,0-6.047,28.959c0,.38.709.72.921.531.388.3.142.887.181.238.413-6.8,5.3-13.855,10.5-18.026,5.1-4.092,11.157-6.627,17.138-9.125,2.771-1.157,5.523-2.343,8.226-3.651a21.76,21.76,0,0,0,5.961-3.655c3.426-3.368,1.876-8.678-1.579-11.426-2.918-2.323-6.428-2.531-9.786-3.6,2.713-3.6,6.431-6.306,9.646-9.434,2.141-2.082,5.391-5.349,4.583-8.67-1.377-5.668-8.2-1.877-11.094.044a59.99,59.99,0,0,0-14.231,13.178A120.844,120.844,0,0,0,9722.481,710.306Z" fill="#231f20"/>
    </g>
    <g id="Group_217" data-name="Group 217">
      <path id="Path_7043" data-name="Path 7043" d="M9721.872,675.851c-.358.484-.687.99-1.058,1.466a3.89,3.89,0,0,1-.6.647,1.4,1.4,0,0,1-.839.427.183.183,0,0,1-.157-.274,2.882,2.882,0,0,1,.629-.574c.216-.191.437-.378.646-.576.421-.4.807-.832,1.22-1.24.079-.079.232.028.16.124Z" fill="#2a5590"/>
    </g>
    <g id="Group_223" data-name="Group 223">
      <g id="Group_218" data-name="Group 218">
        <path id="Path_7044" data-name="Path 7044" d="M9750.685,591.676c-2.2,4.57-4.506,9.035-6.95,13.493a108.566,108.566,0,0,0-6.465,13.127c-2.167,5.637-4.439,11.189-6.731,16.775a165.457,165.457,0,0,0-6.219,17.764,210.6,210.6,0,0,0-7.036,36.124,146.648,146.648,0,0,0-.735,18.672c.134,4.87.684,9.687,1.141,14.531a86.111,86.111,0,0,1,.4,15.2c-.353,4.228-1.025,9.254-4.306,12.271a.754.754,0,0,1-1.18-.91c3.9-8,3.681-16.713,2.936-25.384-.412-4.787-.983-9.548-1.145-14.354a143.735,143.735,0,0,1,.61-18.328,216.755,216.755,0,0,1,6.614-35.4,159.438,159.438,0,0,1,5.814-17.518c2.269-5.741,4.889-11.326,7.087-17.1,3.977-10.435,10.035-19.687,15.4-29.412.279-.505,1.012-.061.767.448Z" fill="#939598"/>
      </g>
      <g id="Group_219" data-name="Group 219">
        <path id="Path_7045" data-name="Path 7045" d="M9717.1,677c-.63-7.6-1.3-14.917-3.864-22.166-1.2-3.381-2.643-6.668-3.8-10.063-.952-2.805-2.378-6.653-1.645-9.634a.344.344,0,0,1,.658,0c.49,1.7.436,3.571.79,5.317a46.906,46.906,0,0,0,1.332,5.021c1.123,3.512,2.593,6.878,3.865,10.334A51.1,51.1,0,0,1,9717.627,677a.262.262,0,0,1-.523,0Z" fill="#939598"/>
      </g>
      <g id="Group_220" data-name="Group 220">
        <path id="Path_7046" data-name="Path 7046" d="M9761.139,633.333c-3.016,7.287-12.084,7.707-18.687,9.339-4.716,1.165-8.2,4.312-10.7,8.4a64.183,64.183,0,0,0-6.109,14.7.046.046,0,0,1-.088-.024c1.848-8.734,4.494-19.251,13.5-23.315,7.215-3.256,16.723-1.621,21.337-9.414.228-.383.932-.126.748.316Z" fill="#939598"/>
      </g>
      <g id="Group_221" data-name="Group 221">
        <path id="Path_7047" data-name="Path 7047" d="M9740.734,698.967a73.447,73.447,0,0,0-13.816,14.861,90.155,90.155,0,0,0-5.032,8.277,92.407,92.407,0,0,0-4.066,9.594c-.1.246-.548.251-.515-.07.723-6.852,5.064-12.727,8.539-18.428a44.085,44.085,0,0,1,6.465-7.82,57.583,57.583,0,0,1,7.957-7.021c.355-.251.81.328.469.607Z" fill="#939598"/>
      </g>
      <g id="Group_222" data-name="Group 222">
        <path id="Path_7048" data-name="Path 7048" d="M9699.3,690.9c2.506,1.42,2.588,5.378,2.638,7.9.094,4.857-1.108,9.417,1.022,14.045,1.925,4.179,5,7.669,7.419,11.55,2.263,3.634,4.5,8.278,4.445,12.652,0,.253-.391.4-.508.137a52.794,52.794,0,0,1-1.893-6.321,26.487,26.487,0,0,0-3.087-6.521c-2.326-3.606-5.183-6.887-7.07-10.765-1.988-4.086-1.7-8.133-1.565-12.562.083-2.823.366-7.36-1.911-9.459-.357-.329.1-.894.51-.661Z" fill="#939598"/>
      </g>
    </g>
    <path id="Path_7049" data-name="Path 7049" d="M9716.06,737.5c10.095-.139,29.322-.25,29.322-.25l-4.758,35.324a16.017,16.017,0,0,1-15.873,13.878h-17.382a16.016,16.016,0,0,1-15.873-13.878l-4.758-35.324S9705.966,737.364,9716.06,737.5Z" fill="#fff"/>
    <g id="Group_229" data-name="Group 229">
      <g id="Group_227" data-name="Group 227">
        <g id="Group_224" data-name="Group 224">
          <path id="Path_7050" data-name="Path 7050" d="M9228.15,672.586l57.587,114.07,167.892,1.2-51.813-116.881Z" fill="#f5f7fa"/>
        </g>
        <g id="Group_225" data-name="Group 225">
          <path id="Path_7051" data-name="Path 7051" d="M9565.056,787.151l-.03-9.131H9456.34l-50.006-109.651H9232.518l-4.367,4.217h169.8l51.964,114.472S9565.056,786.85,9565.056,787.151Z" fill="#d4dde9"/>
        </g>
        <g id="Group_226" data-name="Group 226">
          <path id="Path_7052" data-name="Path 7052" d="M9315.332,735.532c1.9,5.69,12.191,10.084,22.993,9.814s18.021-5.1,16.125-10.792-12.191-10.083-22.993-9.813S9313.435,729.843,9315.332,735.532Z" fill="#d4dde9"/>
        </g>
      </g>
      <g id="Group_228" data-name="Group 228">
        <path id="Path_7053" data-name="Path 7053" d="M9449.913,787.786a.736.736,0,0,0,.3-.065.728.728,0,0,0,.361-.964l-52.157-114.9h-170.27a.728.728,0,1,0,0,1.456H9397.48l51.771,114.046A.727.727,0,0,0,9449.913,787.786Z" fill="#fff"/>
      </g>
    </g>
    <g id="Group_231" data-name="Group 231">
      <g id="Group_230" data-name="Group 230">
        <rect id="Rectangle_26" data-name="Rectangle 26" width="199.722" height="44.282" transform="translate(9772.342 840.076) rotate(-180)" fill="#414c59"/>
        <rect id="Rectangle_27" data-name="Rectangle 27" width="359.339" height="44.282" transform="translate(9573.761 840.076) rotate(-180)" fill="#313944"/>
      </g>
      <path id="Path_7054" data-name="Path 7054" d="M9572.62,795.794h199.723v8.133H9214.422v-8.133Z" fill="#b4c3d8" style="mix-blend-mode: multiply;isolation: isolate"/>
      <rect id="Rectangle_28" data-name="Rectangle 28" width="218.099" height="10.845" transform="translate(9781.981 797.902) rotate(-180)" fill="#313944"/>
      <rect id="Rectangle_29" data-name="Rectangle 29" width="359.339" height="10.845" transform="translate(9565.024 797.902) rotate(-180)" fill="#414c59"/>
    </g>
    <g id="Group_233" data-name="Group 233">
      <rect id="Rectangle_30" data-name="Rectangle 30" width="86.306" height="50.999" rx="5.426" transform="translate(9701.45 554.723) rotate(-180)" fill="#fff"/>
      <path id="Path_7055" data-name="Path 7055" d="M9595.051,529.224l26.48-11.174V540.4Z" fill="#fff"/>
      <g id="Group_232" data-name="Group 232">
        <circle id="Ellipse_24" data-name="Ellipse 24" cx="4.878" cy="4.878" r="4.878" transform="translate(9670.146 524.346)" fill="#d1d3d4"/>
        <circle id="Ellipse_25" data-name="Ellipse 25" cx="4.878" cy="4.878" r="4.878" transform="translate(9653.419 524.346)" fill="#d1d3d4"/>
        <circle id="Ellipse_26" data-name="Ellipse 26" cx="4.878" cy="4.878" r="4.878" transform="translate(9636.692 524.346)" fill="#d1d3d4"/>
      </g>
    </g>
    <g id="Group_234" data-name="Group 234" transform="translate(-17.749 -12.021)">
      <path id="Path_7056" data-name="Path 7056" d="M9264.1,395.444h162.771a18.927,18.927,0,0,1,18.928,18.928V491.59a18.927,18.927,0,0,1-18.928,18.928h-14.59c-.409,7,.593,17.413,6.438,30.727a81.776,81.776,0,0,1-35.29-30.727H9264.1a18.928,18.928,0,0,1-18.928-18.928V414.372A18.928,18.928,0,0,1,9264.1,395.444Z" fill="#d1d3d4"/>
      <path id="Path_7057" data-name="Path 7057" d="M9333.534,432.246h80.732a4.017,4.017,0,0,0,4.018-4.017h0a4.017,4.017,0,0,0-4.018-4.016h-80.732a4.017,4.017,0,0,0-4.017,4.016h0A4.017,4.017,0,0,0,9333.534,432.246Z" fill="#fff"/>
      <path id="Path_7058" data-name="Path 7058" d="M9275.646,455.643h140.177a2.461,2.461,0,0,0,2.461-2.46h0a2.461,2.461,0,0,0-2.461-2.46H9275.646a2.46,2.46,0,0,0-2.461,2.46h0A2.46,2.46,0,0,0,9275.646,455.643Z" fill="#fff"/>
      <path id="Path_7059" data-name="Path 7059" d="M9275.646,469.3h140.177a2.461,2.461,0,0,0,2.461-2.46h0a2.461,2.461,0,0,0-2.461-2.46H9275.646a2.46,2.46,0,0,0-2.461,2.46h0A2.46,2.46,0,0,0,9275.646,469.3Z" fill="#fff"/>
      <path id="Path_7060" data-name="Path 7060" d="M9306.224,483.859h109.6a2.461,2.461,0,0,0,2.461-2.46h0a2.461,2.461,0,0,0-2.461-2.46h-109.6a2.46,2.46,0,0,0-2.46,2.46h0A2.461,2.461,0,0,0,9306.224,483.859Z" fill="#fff"/>
      <path id="Path_7061" data-name="Path 7061" d="M9276.747,432.246h38.512a4.018,4.018,0,0,0,4.018-4.017h0a4.017,4.017,0,0,0-4.018-4.016h-38.512a4.017,4.017,0,0,0-4.017,4.016h0A4.017,4.017,0,0,0,9276.747,432.246Z" fill="#fff"/>
    </g>
    <g id="Group_239" data-name="Group 239">
      <rect id="Rectangle_31" data-name="Rectangle 31" width="63.934" height="46.056" rx="2" transform="translate(9366.857 641.037) rotate(-180)" fill="#fff"/>
      <g id="Group_238" data-name="Group 238">
        <g id="Group_235" data-name="Group 235">
          <path id="Path_7062" data-name="Path 7062" d="M9334.5,624.891a1.4,1.4,0,0,0,.9-.323l30.705-25.361a1.409,1.409,0,1,0-1.794-2.172l-29.784,24.6L9305.5,596.379a1.409,1.409,0,1,0-1.849,2.126l29.926,26.04A1.4,1.4,0,0,0,9334.5,624.891Z" fill="#d1d3d4"/>
        </g>
        <g id="Group_236" data-name="Group 236">
          <path id="Path_7063" data-name="Path 7063" d="M9365.207,639.985a1.409,1.409,0,0,0,1.02-2.38l-21.475-22.576a1.409,1.409,0,1,0-2.04,1.943l21.475,22.576A1.4,1.4,0,0,0,9365.207,639.985Z" fill="#d1d3d4"/>
        </g>
        <g id="Group_237" data-name="Group 237">
          <path id="Path_7064" data-name="Path 7064" d="M9304.575,639.16a1.405,1.405,0,0,0,1-.414l21.388-21.447a1.409,1.409,0,1,0-2-1.99l-21.389,21.447a1.409,1.409,0,0,0,1,2.4Z" fill="#d1d3d4"/>
        </g>
      </g>
    </g>
    <g id="Group_240" data-name="Group 240">
      <rect id="Rectangle_32" data-name="Rectangle 32" width="97" height="25.003" rx="4" transform="translate(9313.064 567.649) rotate(-180)" fill="#d1d3d4"/>
    </g>
    <g id="Group_241" data-name="Group 241">
      <path id="Path_7065" data-name="Path 7065" d="M9300.075,561.294a1.181,1.181,0,0,1-.307-1.024l.368-3.237c.028-.083.015-.137-.041-.165a.209.209,0,0,0-.206.041l-2.663,1.968a1.374,1.374,0,0,1-1.045.225,1.167,1.167,0,0,1-.84-.635,1.2,1.2,0,0,1-.142-1.066,1.288,1.288,0,0,1,.758-.778l2.99-1.352q.123-.04.123-.123t-.123-.123l-2.99-1.353a1.309,1.309,0,0,1-.758-.7,1.234,1.234,0,0,1,.142-1.148,1.172,1.172,0,0,1,.84-.635,1.286,1.286,0,0,1,1.045.267l2.663,1.926a.206.206,0,0,0,.206.041c.056-.027.069-.082.041-.164l-.368-3.238a1.217,1.217,0,0,1,1.229-1.434,1.26,1.26,0,0,1,.984.41,1.332,1.332,0,0,1,.327,1.024l-.368,3.238c-.027.082-.014.137.041.164a.2.2,0,0,0,.2-.041l2.663-1.967a1.338,1.338,0,0,1,1.025-.226,1.286,1.286,0,0,1,.86.635,1.348,1.348,0,0,1,.123,1.066,1.219,1.219,0,0,1-.737.778l-2.992,1.353q-.123.04-.123.123t.123.123l2.992,1.352a1.321,1.321,0,0,1,.758.7,1.232,1.232,0,0,1-.144,1.148,1.28,1.28,0,0,1-.86.635,1.265,1.265,0,0,1-1.025-.266l-2.663-1.927a.205.205,0,0,0-.2-.041c-.055.028-.068.082-.041.165l.368,3.237a1.366,1.366,0,0,1-.308,1.024,1.148,1.148,0,0,1-.922.409A1.326,1.326,0,0,1,9300.075,561.294Z" fill="#fff"/>
    </g>
    <g id="Group_242" data-name="Group 242">
      <path id="Path_7066" data-name="Path 7066" d="M9282.422,561.294a1.179,1.179,0,0,1-.307-1.024l.368-3.237c.027-.083.015-.137-.041-.165a.207.207,0,0,0-.205.041l-2.663,1.968a1.376,1.376,0,0,1-1.046.225,1.164,1.164,0,0,1-.839-.635,1.2,1.2,0,0,1-.144-1.066,1.29,1.29,0,0,1,.758-.778l2.99-1.352c.083-.027.124-.068.124-.123s-.041-.1-.124-.123l-2.99-1.353a1.318,1.318,0,0,1-.758-.7,1.235,1.235,0,0,1,.144-1.148,1.169,1.169,0,0,1,.839-.635,1.288,1.288,0,0,1,1.046.267l2.663,1.926a.2.2,0,0,0,.205.041c.056-.027.068-.082.041-.164l-.368-3.238a1.217,1.217,0,0,1,1.229-1.434,1.259,1.259,0,0,1,.983.41,1.333,1.333,0,0,1,.329,1.024l-.37,3.238c-.026.082-.013.137.041.164a.2.2,0,0,0,.205-.041l2.664-1.967a1.336,1.336,0,0,1,1.024-.226,1.286,1.286,0,0,1,.86.635,1.344,1.344,0,0,1,.123,1.066,1.222,1.222,0,0,1-.737.778l-2.992,1.353q-.123.04-.123.123t.123.123l2.992,1.352a1.319,1.319,0,0,1,.758.7,1.238,1.238,0,0,1-.144,1.148,1.28,1.28,0,0,1-.86.635,1.263,1.263,0,0,1-1.024-.266l-2.664-1.927a.206.206,0,0,0-.205-.041c-.054.028-.067.082-.041.165l.37,3.237a1.375,1.375,0,0,1-.309,1.024,1.15,1.15,0,0,1-.922.409A1.326,1.326,0,0,1,9282.422,561.294Z" fill="#fff"/>
    </g>
  </g>
</svg>
