<svg xmlns="http://www.w3.org/2000/svg" width="34.141" height="34.537" viewBox="0 0 34.141 34.537">
  <path id="Path_12717" data-name="Path 12717" d="M1338.036,4520.222q0-6.105,0-12.21c.007-3.134,1.853-4.987,4.984-4.99q12.094-.01,24.188,0a4.575,4.575,0,0,1,4.945,4.923q.033,12.33,0,24.659c-.009,3.074-1.862,4.9-4.938,4.929-1.956.022-3.912-.023-5.867.018-.786.017-1.142-.163-1.129-1.046.053-3.431.056-6.863.034-10.294-.005-.779.244-1.075,1.03-1.025.835.054,1.679-.036,2.513.023,1.024.073,1.447-.367,1.5-1.366.047-.914.188-1.826.324-2.733.145-.968-.195-1.431-1.22-1.393-1.076.041-2.155-.018-3.232.017-.638.021-.97-.149-.938-.859.043-.956-.021-1.917.033-2.872.081-1.418.644-1.983,2.078-2.13a10.94,10.94,0,0,1,1.793-.036c.948.059,1.391-.278,1.373-1.294-.075-4.177.5-3.514-3.429-3.54-4.727-.03-7.123,2.4-7.152,7.159-.006.878-.039,1.757.009,2.633.04.751-.28.93-.985.946-2.963.067-2.956.089-2.913,3.062.033,2.329-.369,2.5,2.418,2.366,1.231-.057,1.556.321,1.523,1.528-.091,3.27-.065,6.543-.04,9.815.006.765-.213,1.047-1.01,1.04-3.752-.035-7.5.02-11.256-.033a4.477,4.477,0,0,1-4.63-4.729C1338.021,4528.6,1338.036,4524.412,1338.036,4520.222Z" transform="translate(-1338.031 -4503.017)" fill="#ffaf00"/>
</svg>