<svg xmlns="http://www.w3.org/2000/svg" width="35.892" height="35.304" viewBox="0 0 35.892 35.304">
  <g id="Group_430" data-name="Group 430" transform="translate(-1337.156 -4568.126)">
    <path id="Path_12718" data-name="Path 12718" d="M1372.671,4577.3a8.949,8.949,0,0,0-8.2-8.6,76.409,76.409,0,0,0-18.273-.051c-5.191.6-8.076,3.564-8.608,8.716a80.613,80.613,0,0,0,0,16.733c.618,5.859,4.459,9.2,10.362,9.308,2.394.045,4.788.007,7.185.007v-.012c2.552,0,5.109.074,7.661-.014,5.716-.2,9.421-3.67,9.9-9.349A96.887,96.887,0,0,0,1372.671,4577.3Zm-3.583,15.978c-.235,3.542-1.814,5.284-5.316,5.847a13.112,13.112,0,0,1-2.025.185c-4.431.014-8.862.007-13.293.007a11.72,11.72,0,0,1-3.192-.451,5,5,0,0,1-3.959-4.577,89.241,89.241,0,0,1,0-17.094,4.986,4.986,0,0,1,3.841-4.544,9.186,9.186,0,0,1,2.591-.429c2.476-.012,4.949-.005,7.424-.005v.019c2.555,0,5.114-.1,7.662.024,4.179.211,6.025,2.126,6.288,6.3A113.832,113.832,0,0,1,1369.088,4593.276Z" fill="#ffaf00"/>
    <path id="Path_12719" data-name="Path 12719" d="M1355.044,4577.5a8.74,8.74,0,1,0,8.745,8.735A8.729,8.729,0,0,0,1355.044,4577.5Zm-.158,13.775a5.056,5.056,0,1,1,5.234-4.925A5.042,5.042,0,0,1,1354.886,4591.277Z" fill="#ffaf00"/>
    <path id="Path_12720" data-name="Path 12720" d="M1364.494,4575.589a2,2,0,0,1,2.063,2,2.037,2.037,0,0,1-1.948,2.013,1.983,1.983,0,0,1-2.037-1.9A1.954,1.954,0,0,1,1364.494,4575.589Z" fill="#ffaf00"/>
  </g>
</svg>
