<svg xmlns="http://www.w3.org/2000/svg" width="151.99" height="111.964" viewBox="0 0 151.99 111.964">
  <g id="Group_427" data-name="Group 427" transform="translate(-1610.222 -2820.17)">
    <g id="Group_426" data-name="Group 426">
      <path id="Path_12706" data-name="Path 12706" d="M1755.57,2897.691l-11.364,11.364v9.789l16.261-16.256Zm.738-26.263-12.1,12.1v9.785l16.995-16.995Zm-3.531-12.218-4.892-4.9-5.17,5.169a8.781,8.781,0,0,1,1.491,4.911v3.388Zm-19.8-39.04v6.924h17.083l-23.886,23.886h.226a8.79,8.79,0,0,1,6.6,2.968l22.293-22.294V2849.4h6.924V2820.17ZM1615.119,2923.9l17.711-17.71v-9.8l-22.608,22.608Z" fill="#fff"/>
    </g>
    <path id="Path_12707" data-name="Path 12707" d="M1735.379,2862.486H1728.3v-2.679a1.9,1.9,0,0,0-1.905-1.9h-18.92a19.082,19.082,0,0,0-37.919,0h-18.921a1.9,1.9,0,0,0-1.9,1.9v2.679h-7.075a1.905,1.905,0,0,0-1.9,1.905v65.838a1.9,1.9,0,0,0,1.9,1.905h62.707a1.9,1.9,0,1,0,0-3.809h-13.939v-2.167a21.962,21.962,0,0,1,11.856-3.486H1726.4a1.905,1.905,0,0,0,1.905-1.905V2866.3h5.171v62.029H1721.25a1.9,1.9,0,0,0,0,3.809h14.129a1.9,1.9,0,0,0,1.905-1.905v-65.838a1.905,1.905,0,0,0-1.905-1.905Zm-10.886,56.375h-22.211a25.748,25.748,0,0,0-11.856,2.893v-22.461a10.407,10.407,0,0,0,9.3-10.147v-6.037c0-5.131,1.834-8.42,4.678-12.452a18.49,18.49,0,0,0,3.131-8.945h16.962v57.149Zm-37.2-56.093a12.638,12.638,0,0,1-1.091-1.806,2.568,2.568,0,1,1,4.624,0,12.657,12.657,0,0,1-1.091,1.806,16.535,16.535,0,0,0-1.221,1.954,16.594,16.594,0,0,0-1.212-1.942l-.009-.013Zm8.614,22.076v4.3a6.545,6.545,0,0,1-6.378,6.378h-2.03a6.545,6.545,0,0,1-6.378-6.378v-4.3Zm-7.393-40.055a15.272,15.272,0,0,1,12.728,23.713c-2.595,3.906-4.873,7.75-5.254,12.533h-5.57V2872.4a12.52,12.52,0,0,1,2.4-7.4,16.5,16.5,0,0,0,1.422-2.352,6.378,6.378,0,1,0-11.453,0,16.45,16.45,0,0,0,1.413,2.342l.01.014a12.516,12.516,0,0,1,2.4,7.392v8.634h-5.556a22.576,22.576,0,0,0-4.755-11.807,15.272,15.272,0,0,1,12.217-24.438Zm-19.014,16.923a21.135,21.135,0,0,0,4.224,10.494,18.061,18.061,0,0,1,3.587,10.733v6.207a10.409,10.409,0,0,0,9.3,10.147v22.464a25.826,25.826,0,0,0-11.858-2.9h-22.214v-57.148Zm-25.942,66.613V2866.3h5.17v54.469a1.925,1.925,0,0,0,1.906,1.907h24.118a22.02,22.02,0,0,1,11.857,3.486v2.167Z" fill="#fff"/>
    <path id="Path_12708" data-name="Path 12708" d="M1710.958,2873.978h6.056a1.905,1.905,0,0,0,0-3.81h-6.056a1.905,1.905,0,0,0,0,3.81Z" fill="#fff"/>
    <path id="Path_12709" data-name="Path 12709" d="M1717.014,2882.5h-11.143a1.905,1.905,0,1,0,0,3.81h11.143a1.905,1.905,0,0,0,0-3.81Z" fill="#fff"/>
    <path id="Path_12710" data-name="Path 12710" d="M1717.014,2894.838h-12.683a1.905,1.905,0,0,0,0,3.81h12.683a1.905,1.905,0,0,0,0-3.81Z" fill="#fff"/>
    <path id="Path_12711" data-name="Path 12711" d="M1660.494,2873.978h6.056a1.905,1.905,0,0,0,0-3.81h-6.056a1.905,1.905,0,1,0,0,3.81Z" fill="#fff"/>
    <path id="Path_12712" data-name="Path 12712" d="M1660.494,2886.313h11.144a1.905,1.905,0,0,0,0-3.81h-11.144a1.905,1.905,0,1,0,0,3.81Z" fill="#fff"/>
    <path id="Path_12713" data-name="Path 12713" d="M1660.494,2898.648h12.493a1.905,1.905,0,0,0,0-3.81h-12.493a1.905,1.905,0,1,0,0,3.81Z" fill="#fff"/>
    <path id="Path_12714" data-name="Path 12714" d="M1717.014,2907.172h-17.826a1.9,1.9,0,1,0,0,3.81h17.826a1.9,1.9,0,1,0,0-3.81Z" fill="#fff"/>
    <path id="Path_12715" data-name="Path 12715" d="M1660.494,2910.982h17.826a1.9,1.9,0,1,0,0-3.81h-17.826a1.9,1.9,0,1,0,0,3.81Z" fill="#fff"/>
    <path id="Path_12716" data-name="Path 12716" d="M1714.64,2929.5a1.9,1.9,0,1,0-.821,2.385A1.919,1.919,0,0,0,1714.64,2929.5Z" fill="#fff"/>
  </g>
</svg>
