<svg xmlns="http://www.w3.org/2000/svg" width="689.43" height="1695.01" viewBox="0 0 689.43 1695.01">
  <g id="Group_395" data-name="Group 395" transform="translate(-1227.59 -1312.57)" opacity="0.05">
    <g id="Group_393" data-name="Group 393">
      <path id="Path_12626" data-name="Path 12626" d="M1635.454,2663.67a31.291,31.291,0,0,1-21.9-8.905c-133.428-130.127-207.5-304.39-208.579-490.669l-.012-4.067a31.358,31.358,0,1,1,62.717,0l.013,3.736c.98,169.338,68.328,327.774,189.654,446.093a31.365,31.365,0,0,1-21.9,53.812Z" fill="#fff"/>
    </g>
    <g id="Group_394" data-name="Group 394">
      <path id="Path_12627" data-name="Path 12627" d="M1721.134,2501.829a31.285,31.285,0,0,1-24.162-11.343c-71.936-86.776-112.892-192.1-118.429-304.6a31.36,31.36,0,0,1,62.644-3.087,451,451,0,0,0,104.073,267.653,31.359,31.359,0,0,1-24.126,51.375Z" fill="#fff"/>
    </g>
    <path id="Path_12628" data-name="Path 12628" d="M1290.3,2160.08c0,382.18,268.52,702.8,626.72,783.26v64.24c-393.1-81.56-689.43-430.58-689.43-847.5s296.33-765.95,689.43-847.51v64.18C1558.8,1457.24,1290.3,1777.95,1290.3,2160.08Z" fill="#fff"/>
  </g>
</svg>
