<svg xmlns="http://www.w3.org/2000/svg" width="150" height="83.411" viewBox="0 0 150 83.411">
  <g id="Group_444" data-name="Group 444" transform="translate(-208.199 -4624.15)">
    <g id="Group_443" data-name="Group 443">
      <path id="Path_12728" data-name="Path 12728" d="M255.522,4624.15h1.594v22.091h14.3v1.48H255.522Z" fill="#ffaf00"/>
      <path id="Path_12729" data-name="Path 12729" d="M277.149,4647.1a7.876,7.876,0,0,1-3.042-3.123,9.862,9.862,0,0,1,.049-9.077,7.876,7.876,0,0,1,3.09-3.075,9.482,9.482,0,0,1,8.573-.114,7.31,7.31,0,0,1,2.985,2.831,8.527,8.527,0,0,1,1.106,4.433q0,.454-.032.813h-15.34a7.586,7.586,0,0,0,.952,3.782,6.5,6.5,0,0,0,2.545,2.521,7.353,7.353,0,0,0,3.612.887,7.14,7.14,0,0,0,3.774-.985,6.729,6.729,0,0,0,2.521-2.691l1.318.569a7.672,7.672,0,0,1-3.026,3.172,8.912,8.912,0,0,1-4.6,1.188A8.81,8.81,0,0,1,277.149,4647.1Zm10.337-11.883a6.05,6.05,0,0,0-2.366-2.367,7.01,7.01,0,0,0-3.49-.854,7.208,7.208,0,0,0-3.546.862,6.508,6.508,0,0,0-2.472,2.375,7.659,7.659,0,0,0-1.058,3.416h13.827A7.3,7.3,0,0,0,287.486,4635.212Z" fill="#ffaf00"/>
      <path id="Path_12730" data-name="Path 12730" d="M297.271,4647.079a7.833,7.833,0,0,1-2.977-3.14,9.407,9.407,0,0,1-1.049-4.449,9.241,9.241,0,0,1,1.115-4.6,7.834,7.834,0,0,1,3.041-3.067,8.68,8.68,0,0,1,4.319-1.082,8.061,8.061,0,0,1,4.514,1.261,7.489,7.489,0,0,1,2.839,3.375l.065-4.131h1.35v16.478h-.976l-.341-4.018a7.639,7.639,0,0,1-2.928,3.3,8.352,8.352,0,0,1-4.523,1.221A8.542,8.542,0,0,1,297.271,4647.079Zm8.354-1.212a6.625,6.625,0,0,0,2.521-2.635,8.339,8.339,0,0,0-.041-7.6,6.56,6.56,0,0,0-2.57-2.587,7.377,7.377,0,0,0-3.652-.911,7.253,7.253,0,0,0-3.766.968,6.621,6.621,0,0,0-2.521,2.643,7.878,7.878,0,0,0-.886,3.742,7.723,7.723,0,0,0,.935,3.847,6.556,6.556,0,0,0,2.57,2.579,7.409,7.409,0,0,0,3.668.911A7.228,7.228,0,0,0,305.625,4645.867Z" fill="#ffaf00"/>
      <path id="Path_12731" data-name="Path 12731" d="M319.281,4647.079a7.82,7.82,0,0,1-2.977-3.14,9.4,9.4,0,0,1-1.049-4.449,9.24,9.24,0,0,1,1.114-4.6,7.836,7.836,0,0,1,3.042-3.067,8.674,8.674,0,0,1,4.319-1.082,8,8,0,0,1,4.465,1.245,7.41,7.41,0,0,1,2.822,3.375V4624.15H332.5v23.571h-.976l-.342-4.018a7.535,7.535,0,0,1-2.912,3.3,8.377,8.377,0,0,1-4.538,1.221A8.542,8.542,0,0,1,319.281,4647.079Zm8.353-1.212a6.625,6.625,0,0,0,2.521-2.635,8.339,8.339,0,0,0-.041-7.6,6.554,6.554,0,0,0-2.57-2.587,7.377,7.377,0,0,0-3.652-.911,7.253,7.253,0,0,0-3.766.968,6.621,6.621,0,0,0-2.521,2.643,7.878,7.878,0,0,0-.886,3.742,7.723,7.723,0,0,0,.935,3.847,6.556,6.556,0,0,0,2.57,2.579,7.412,7.412,0,0,0,3.668.911A7.228,7.228,0,0,0,327.634,4645.867Z" fill="#ffaf00"/>
      <path id="Path_12732" data-name="Path 12732" d="M255.522,4653.818h1.61l15.942,21.114-.1-1.041v-20.073h1.61v23.571h-1.61l-15.942-21.132.1,1.042v20.09h-1.61Z" fill="#ffaf00"/>
      <path id="Path_12733" data-name="Path 12733" d="M284.128,4676.746a7.817,7.817,0,0,1-2.977-3.139,9.4,9.4,0,0,1-1.049-4.45,9.242,9.242,0,0,1,1.114-4.6,7.827,7.827,0,0,1,3.042-3.066,8.664,8.664,0,0,1,4.319-1.082,8.065,8.065,0,0,1,4.514,1.26,7.5,7.5,0,0,1,2.838,3.376l.065-4.132h1.351v16.479h-.976l-.342-4.018a7.65,7.65,0,0,1-2.928,3.3,8.358,8.358,0,0,1-4.522,1.22A8.542,8.542,0,0,1,284.128,4676.746Zm8.353-1.212A6.625,6.625,0,0,0,295,4672.9a8.339,8.339,0,0,0-.041-7.6,6.554,6.554,0,0,0-2.57-2.586,7.367,7.367,0,0,0-3.652-.911,7.244,7.244,0,0,0-3.766.968,6.615,6.615,0,0,0-2.521,2.643,7.874,7.874,0,0,0-.886,3.741A7.727,7.727,0,0,0,282.5,4673a6.56,6.56,0,0,0,2.57,2.578,7.4,7.4,0,0,0,3.668.911A7.228,7.228,0,0,0,292.481,4675.534Z" fill="#ffaf00"/>
      <path id="Path_12734" data-name="Path 12734" d="M307.031,4676.827a3.847,3.847,0,0,1-1.561-1.569,4.776,4.776,0,0,1-.545-2.31v-10.753h-3.562v-1.285h3.578l.325-4.018h1.123v4.018h4.766v1.285h-4.766v10.753a3.292,3.292,0,0,0,.407,1.659,2.832,2.832,0,0,0,1.114,1.106,3.256,3.256,0,0,0,1.6.39h1.643v1.286H309.4A4.822,4.822,0,0,1,307.031,4676.827Z" fill="#ffaf00"/>
      <path id="Path_12735" data-name="Path 12735" d="M315.2,4656.591a1.265,1.265,0,0,1-.367-.935,1.246,1.246,0,0,1,.375-.944,1.4,1.4,0,0,1,1.879.008,1.268,1.268,0,0,1,.366.936,1.251,1.251,0,0,1-.374.935,1.291,1.291,0,0,1-.944.366A1.261,1.261,0,0,1,315.2,4656.591Zm.2,4.319h1.48v16.479H315.4Z" fill="#ffaf00"/>
      <path id="Path_12736" data-name="Path 12736" d="M325.69,4676.746a7.93,7.93,0,0,1-3.034-3.139,9.852,9.852,0,0,1,.057-9.053,7.876,7.876,0,0,1,3.1-3.066,8.994,8.994,0,0,1,4.408-1.082,8.8,8.8,0,0,1,4.547,1.154,7.94,7.94,0,0,1,3.026,3.149,9.285,9.285,0,0,1,1.065,4.448,9.113,9.113,0,0,1-1.13,4.588,7.878,7.878,0,0,1-3.1,3.066,9,9,0,0,1-4.409,1.082A8.814,8.814,0,0,1,325.69,4676.746Zm8.288-1.212a6.634,6.634,0,0,0,2.522-2.635,7.82,7.82,0,0,0,.894-3.742,7.723,7.723,0,0,0-.943-3.855,6.615,6.615,0,0,0-2.579-2.586,7.367,7.367,0,0,0-3.652-.911,7.2,7.2,0,0,0-3.757.968,6.685,6.685,0,0,0-2.522,2.643,7.82,7.82,0,0,0-.894,3.741,7.727,7.727,0,0,0,.935,3.848,6.566,6.566,0,0,0,2.57,2.578,7.4,7.4,0,0,0,3.668.911A7.256,7.256,0,0,0,333.978,4675.534Z" fill="#ffaf00"/>
      <path id="Path_12737" data-name="Path 12737" d="M345.169,4660.91l.065,3.79a6.935,6.935,0,0,1,3.709-3.758,6.738,6.738,0,0,1,2.652-.536,6.576,6.576,0,0,1,3.465.9,6.219,6.219,0,0,1,2.318,2.448,7.17,7.17,0,0,1,.821,3.416v10.216h-1.464v-10.184a5.367,5.367,0,0,0-.724-2.765,5.154,5.154,0,0,0-1.96-1.928,5.433,5.433,0,0,0-2.7-.691,5.908,5.908,0,0,0-3.083.83,6,6,0,0,0-2.179,2.212,5.87,5.87,0,0,0-.789,2.96v9.566h-1.481V4660.91Z" fill="#ffaf00"/>
      <path id="Path_12738" data-name="Path 12738" d="M255.522,4683.486h1.594v22.09h14.3v1.481H255.522Z" fill="#ffaf00"/>
      <path id="Path_12739" data-name="Path 12739" d="M274.7,4683.486h1.6v22.09h14.3v1.481H274.7Z" fill="#ffaf00"/>
      <path id="Path_12740" data-name="Path 12740" d="M297.686,4706.423a8.71,8.71,0,0,1-3.6-3.108,7.93,7.93,0,0,1-1.269-4.392v-7.32a7.812,7.812,0,0,1,1.334-4.5,8.79,8.79,0,0,1,3.677-3.042,12.357,12.357,0,0,1,5.237-1.082,13.469,13.469,0,0,1,5.052.863,8.209,8.209,0,0,1,3.383,2.391,7.374,7.374,0,0,1,1.57,3.53h-1.594a6.162,6.162,0,0,0-1.465-2.741,7.333,7.333,0,0,0-2.854-1.871,11.425,11.425,0,0,0-4.092-.675,10.279,10.279,0,0,0-4.31.9,7.808,7.808,0,0,0-3.164,2.53,6.133,6.133,0,0,0-1.18,3.692v7.32a6.152,6.152,0,0,0,1.188,3.725,7.8,7.8,0,0,0,3.172,2.522,10.332,10.332,0,0,0,4.294.9,11.742,11.742,0,0,0,4.189-.684,6.875,6.875,0,0,0,2.872-1.951,6.045,6.045,0,0,0,1.35-3.01h1.594a7.408,7.408,0,0,1-1.432,3.709,7.911,7.911,0,0,1-3.375,2.521,13.409,13.409,0,0,1-5.2.911A12.1,12.1,0,0,1,297.686,4706.423Z" fill="#ffaf00"/>
      <path id="Path_12741" data-name="Path 12741" d="M316.678,4707.179a1.268,1.268,0,0,1-.366-.936,1.23,1.23,0,0,1,.374-.919,1.3,1.3,0,0,1,.943-.366,1.271,1.271,0,0,1,.936.366,1.247,1.247,0,0,1,.366.919,1.286,1.286,0,0,1-.358.936,1.261,1.261,0,0,1-.944.365A1.287,1.287,0,0,1,316.678,4707.179Z" fill="#ffaf00"/>
    </g>
    <path id="Path_12742" data-name="Path 12742" d="M252.052,4704.333a1.5,1.5,0,0,1-.011.217,2.7,2.7,0,0,1-1.236,2.331,2.087,2.087,0,0,1-1.15.185,41.457,41.457,0,0,1,0-82.913c.25,0,.488,0,.738.011a2.856,2.856,0,0,1,.3.011,1.508,1.508,0,0,1,1.356,1.507,1.525,1.525,0,0,1-1.225,1.5c-.217-.011-.434-.011-.651-.011-.174-.011-.347-.011-.521-.011a38.452,38.452,0,0,0-7.764,76.113,2.733,2.733,0,0,1,2.841-2.028l4.815.38A2.718,2.718,0,0,1,252.052,4704.333Z" fill="#fff"/>
  </g>
</svg>
