<svg xmlns="http://www.w3.org/2000/svg" width="200" height="65.932" viewBox="0 0 200 65.932">
  <g id="Group_408" data-name="Group 408" transform="translate(-116.417 -26.988)">
    <g id="Group_407" data-name="Group 407">
      <path id="Path_12635" data-name="Path 12635" d="M190.21,59.952" fill="none" stroke="#fff" stroke-linecap="round" stroke-linejoin="round" stroke-width="5"/>
      <path id="Path_12636" data-name="Path 12636" d="M197.795,77.941" fill="none" stroke="#fff" stroke-linecap="round" stroke-linejoin="round" stroke-width="5"/>
      <g id="Group_402" data-name="Group 402">
        <path id="Path_12637" data-name="Path 12637" d="M198.754,78.776a1.222,1.222,0,0,1-.857.361,1.18,1.18,0,0,1-.83-.343,26.046,26.046,0,0,1-7.843-16.516l3.2,4.233a23.718,23.718,0,0,0,6.308,10.577A1.187,1.187,0,0,1,198.754,78.776Z" fill="#fff"/>
      </g>
      <g id="Group_403" data-name="Group 403">
        <path id="Path_12638" data-name="Path 12638" d="M201.922,72.693a1.18,1.18,0,0,1-.758.28,1.209,1.209,0,0,1-.92-.433,19.415,19.415,0,0,1-3.051-5.064,2.568,2.568,0,0,0,1.291-2.22V63.631a17.152,17.152,0,0,0,3.592,7.383A1.189,1.189,0,0,1,201.922,72.693Z" fill="#fff"/>
      </g>
      <g id="Group_406" data-name="Group 406">
        <g id="Group_404" data-name="Group 404">
          <path id="Path_12639" data-name="Path 12639" d="M240.262,68.117a26.048,26.048,0,0,1-6.651,10.677,1.2,1.2,0,0,1-1.7-.018,1.187,1.187,0,0,1,.027-1.688,23.689,23.689,0,0,0,5.785-8.953,10.644,10.644,0,0,0,1.21.072A9.2,9.2,0,0,0,240.262,68.117Z" fill="#fff"/>
        </g>
        <g id="Group_405" data-name="Group 405">
          <path id="Path_12640" data-name="Path 12640" d="M233.773,66.736a19.662,19.662,0,0,1-3.339,5.8,1.227,1.227,0,0,1-.921.433,1.2,1.2,0,0,1-.921-1.959,17.08,17.08,0,0,0,3.232-6A8.465,8.465,0,0,0,233.773,66.736Z" fill="#fff"/>
        </g>
      </g>
      <path id="Path_12641" data-name="Path 12641" d="M201.058,71.776" fill="none" stroke="#fff" stroke-linecap="round" stroke-linejoin="round" stroke-width="5"/>
      <path id="Path_12642" data-name="Path 12642" d="M215.335,78.489" fill="none" stroke="#fff" stroke-linecap="round" stroke-linejoin="round" stroke-width="5"/>
      <path id="Path_12643" data-name="Path 12643" d="M217.229,90.915a2.165,2.165,0,0,1-.983,1.859,1.666,1.666,0,0,1-.912.145,33.03,33.03,0,0,1-32.058-25.253,2.549,2.549,0,0,0,1.715-2.41V63.713A30.648,30.648,0,0,0,209.161,89.9a2.159,2.159,0,0,1,2.256-1.615l3.827.307A2.149,2.149,0,0,1,217.229,90.915Z" fill="#fff"/>
      <path id="Path_12644" data-name="Path 12644" d="M247.564,66.98A32.673,32.673,0,0,1,237.988,83.9a1.194,1.194,0,0,1-1.643-1.733,30.284,30.284,0,0,0,9.026-16.427,8.8,8.8,0,0,0,1.516-1.922v1.435A2.542,2.542,0,0,0,247.564,66.98Z" fill="#fff"/>
      <path id="Path_12645" data-name="Path 12645" d="M186.9,48.694l-1.661-2.2a32.977,32.977,0,0,1,61.933,4.865,2.54,2.54,0,0,0-.28,1.164v1.462a8.447,8.447,0,0,0-2.175-2.509,30.582,30.582,0,0,0-57.817-2.78Z" fill="#fff"/>
      <path id="Path_12646" data-name="Path 12646" d="M201.058,71.776" fill="none" stroke="#fff" stroke-linecap="round" stroke-linejoin="round" stroke-width="5"/>
    </g>
    <path id="Path_12647" data-name="Path 12647" d="M116.417,47.034h1.232V64.111H128.7v1.144H116.417Z" fill="#ffaf00"/>
    <path id="Path_12648" data-name="Path 12648" d="M133.135,64.771a6.084,6.084,0,0,1-2.352-2.415,7.148,7.148,0,0,1-.836-3.464,7.069,7.069,0,0,1,.874-3.552,6.093,6.093,0,0,1,2.389-2.377,7.325,7.325,0,0,1,6.627-.088,5.653,5.653,0,0,1,2.307,2.188A6.59,6.59,0,0,1,143,58.489c0,.236-.009.445-.026.63H131.116a5.883,5.883,0,0,0,.736,2.923,5.023,5.023,0,0,0,1.968,1.949,5.69,5.69,0,0,0,2.792.686,5.528,5.528,0,0,0,2.917-.761,5.213,5.213,0,0,0,1.949-2.082l1.018.441a5.922,5.922,0,0,1-2.339,2.452,6.887,6.887,0,0,1-3.558.917A6.81,6.81,0,0,1,133.135,64.771Zm7.991-9.186a4.68,4.68,0,0,0-1.83-1.83,5.416,5.416,0,0,0-2.7-.66,5.576,5.576,0,0,0-2.741.666,5.034,5.034,0,0,0-1.912,1.836,5.925,5.925,0,0,0-.817,2.641h10.689A5.652,5.652,0,0,0,141.126,55.585Z" fill="#ffaf00"/>
    <path id="Path_12649" data-name="Path 12649" d="M148.69,64.758a6.048,6.048,0,0,1-2.3-2.427,7.263,7.263,0,0,1-.811-3.439,7.153,7.153,0,0,1,.861-3.559,6.063,6.063,0,0,1,2.352-2.37,6.706,6.706,0,0,1,3.338-.837,6.233,6.233,0,0,1,3.489.975,5.8,5.8,0,0,1,2.2,2.609l.05-3.193h1.044V65.255h-.755l-.264-3.106a5.9,5.9,0,0,1-2.263,2.552,6.446,6.446,0,0,1-3.5.943A6.594,6.594,0,0,1,148.69,64.758Zm6.457-.936a5.13,5.13,0,0,0,1.949-2.038,6.446,6.446,0,0,0-.031-5.872,5.07,5.07,0,0,0-1.987-2,5.707,5.707,0,0,0-2.823-.7,5.6,5.6,0,0,0-2.911.748A5.1,5.1,0,0,0,147.4,56a6.083,6.083,0,0,0-.686,2.892,5.976,5.976,0,0,0,.723,2.974,5.078,5.078,0,0,0,1.987,1.993,5.733,5.733,0,0,0,2.836.7A5.59,5.59,0,0,0,155.147,63.822Z" fill="#ffaf00"/>
    <path id="Path_12650" data-name="Path 12650" d="M165.7,64.758a6.055,6.055,0,0,1-2.3-2.427,7.275,7.275,0,0,1-.811-3.439,7.153,7.153,0,0,1,.861-3.559,6.063,6.063,0,0,1,2.352-2.37,6.706,6.706,0,0,1,3.338-.837,6.177,6.177,0,0,1,3.452.963,5.732,5.732,0,0,1,2.182,2.609V47.034h1.144V65.255h-.754l-.264-3.106a5.824,5.824,0,0,1-2.251,2.552,6.472,6.472,0,0,1-3.509.943A6.6,6.6,0,0,1,165.7,64.758Zm6.457-.936a5.13,5.13,0,0,0,1.949-2.038,6.446,6.446,0,0,0-.031-5.872,5.063,5.063,0,0,0-1.987-2,5.7,5.7,0,0,0-2.823-.7,5.6,5.6,0,0,0-2.911.748A5.111,5.111,0,0,0,164.408,56a6.082,6.082,0,0,0-.685,2.892,5.976,5.976,0,0,0,.723,2.974,5.075,5.075,0,0,0,1.986,1.993,5.733,5.733,0,0,0,2.836.7A5.587,5.587,0,0,0,172.16,63.822Z" fill="#ffaf00"/>
    <path id="Path_12651" data-name="Path 12651" d="M181.189,47.034h1.245l12.323,16.322-.076-.8V47.034h1.245V65.255h-1.245L182.358,48.92l.076.805v15.53h-1.245Z" fill="#ffaf00"/>
    <path id="Path_12652" data-name="Path 12652" d="M203.3,64.758a6.055,6.055,0,0,1-2.3-2.427,7.275,7.275,0,0,1-.811-3.439,7.142,7.142,0,0,1,.862-3.559,6.054,6.054,0,0,1,2.351-2.37,6.706,6.706,0,0,1,3.338-.837,6.234,6.234,0,0,1,3.49.975,5.788,5.788,0,0,1,2.194,2.609l.051-3.193h1.043V65.255h-.754l-.264-3.106a5.9,5.9,0,0,1-2.264,2.552,6.446,6.446,0,0,1-3.5.943A6.6,6.6,0,0,1,203.3,64.758Zm6.457-.936a5.124,5.124,0,0,0,1.949-2.038,6.446,6.446,0,0,0-.031-5.872,5.063,5.063,0,0,0-1.987-2,5.7,5.7,0,0,0-2.823-.7,5.6,5.6,0,0,0-2.911.748A5.111,5.111,0,0,0,202.006,56a6.082,6.082,0,0,0-.685,2.892,5.976,5.976,0,0,0,.723,2.974,5.071,5.071,0,0,0,1.987,1.993,5.726,5.726,0,0,0,2.835.7A5.587,5.587,0,0,0,209.758,63.822Z" fill="#ffaf00"/>
    <path id="Path_12653" data-name="Path 12653" d="M221.007,64.821a2.98,2.98,0,0,1-1.208-1.214,3.7,3.7,0,0,1-.421-1.785V53.51h-2.754v-.993h2.767l.251-3.106h.868v3.106h3.684v.993H220.51v8.312a2.543,2.543,0,0,0,.314,1.282,2.2,2.2,0,0,0,.861.856,2.525,2.525,0,0,0,1.239.3h1.27v.994h-1.358A3.722,3.722,0,0,1,221.007,64.821Z" fill="#ffaf00"/>
    <path id="Path_12654" data-name="Path 12654" d="M227.319,49.178a.977.977,0,0,1-.283-.723.96.96,0,0,1,.289-.729,1.082,1.082,0,0,1,1.453.006.983.983,0,0,1,.283.723.967.967,0,0,1-.29.723,1,1,0,0,1-.729.283A.977.977,0,0,1,227.319,49.178Zm.157,3.339h1.144V65.255h-1.144Z" fill="#ffaf00"/>
    <path id="Path_12655" data-name="Path 12655" d="M235.43,64.758a6.123,6.123,0,0,1-2.345-2.427,7.612,7.612,0,0,1,.044-7,6.091,6.091,0,0,1,2.4-2.37,6.961,6.961,0,0,1,3.408-.837,6.793,6.793,0,0,1,3.514.893,6.138,6.138,0,0,1,2.339,2.434,7.178,7.178,0,0,1,.824,3.439,7.046,7.046,0,0,1-.874,3.546,6.093,6.093,0,0,1-2.4,2.371,6.965,6.965,0,0,1-3.408.835A6.8,6.8,0,0,1,235.43,64.758Zm6.406-.936a5.117,5.117,0,0,0,1.949-2.038,6.04,6.04,0,0,0,.692-2.892,5.968,5.968,0,0,0-.729-2.98,5.11,5.11,0,0,0-1.993-2,5.707,5.707,0,0,0-2.823-.7,5.568,5.568,0,0,0-2.905.748A5.159,5.159,0,0,0,234.078,56a6.04,6.04,0,0,0-.692,2.892,5.976,5.976,0,0,0,.723,2.974,5.078,5.078,0,0,0,1.987,1.993,5.73,5.73,0,0,0,2.836.7A5.611,5.611,0,0,0,241.836,63.822Z" fill="#ffaf00"/>
    <path id="Path_12656" data-name="Path 12656" d="M250.488,52.517l.05,2.93a5.352,5.352,0,0,1,1.144-1.736,5.267,5.267,0,0,1,1.723-1.169,5.2,5.2,0,0,1,2.05-.416,5.076,5.076,0,0,1,2.678.7,4.81,4.81,0,0,1,1.792,1.892,5.544,5.544,0,0,1,.635,2.641v7.9h-1.132V57.383a4.146,4.146,0,0,0-.559-2.137,3.979,3.979,0,0,0-1.515-1.491,4.214,4.214,0,0,0-2.088-.534,4.56,4.56,0,0,0-2.383.641,4.651,4.651,0,0,0-1.685,1.71,4.553,4.553,0,0,0-.61,2.289v7.394h-1.144V52.517Z" fill="#ffaf00"/>
    <path id="Path_12657" data-name="Path 12657" d="M271.928,47.034h1.232V64.111h11.053v1.144H271.928Z" fill="#ffaf00"/>
    <path id="Path_12658" data-name="Path 12658" d="M286.753,47.034h1.233V64.111h11.053v1.144H286.753Z" fill="#ffaf00"/>
    <path id="Path_12659" data-name="Path 12659" d="M304.521,64.765a6.742,6.742,0,0,1-2.779-2.4,6.134,6.134,0,0,1-.981-3.4v-5.66a6.028,6.028,0,0,1,1.032-3.476,6.785,6.785,0,0,1,2.841-2.351,9.54,9.54,0,0,1,4.049-.837,10.4,10.4,0,0,1,3.9.667,6.34,6.34,0,0,1,2.615,1.848,5.7,5.7,0,0,1,1.214,2.729h-1.233a4.774,4.774,0,0,0-1.131-2.119,5.669,5.669,0,0,0-2.207-1.446,8.823,8.823,0,0,0-3.163-.522,7.942,7.942,0,0,0-3.332.7,6.038,6.038,0,0,0-2.446,1.955,4.744,4.744,0,0,0-.912,2.854v5.66a4.758,4.758,0,0,0,.918,2.879,6.051,6.051,0,0,0,2.452,1.949,7.988,7.988,0,0,0,3.32.692,9.088,9.088,0,0,0,3.238-.528,5.323,5.323,0,0,0,2.22-1.51,4.649,4.649,0,0,0,1.043-2.326h1.233a5.735,5.735,0,0,1-1.107,2.867A6.106,6.106,0,0,1,312.7,64.94a10.351,10.351,0,0,1-4.018.7A9.366,9.366,0,0,1,304.521,64.765Z" fill="#ffaf00"/>
  </g>
</svg>
