<svg xmlns="http://www.w3.org/2000/svg" width="125.7" height="125.81" viewBox="0 0 125.7 125.81">
  <g id="Group_410" data-name="Group 410" transform="translate(-267.743 -1465.013)">
    <path id="Path_12664" data-name="Path 12664" d="M342.956,1481.944l-16.51-16.931-4.337,4.711,16.51,16.579Z" fill="#fff"/>
    <g id="Group_409" data-name="Group 409">
      <path id="Path_12665" data-name="Path 12665" d="M307.076,1484.252c-.085.076-.216.182-.334.3q-11.969,12.108-23.929,24.225a51.955,51.955,0,0,0-10.047,13.444,46.857,46.857,0,0,0-4.457,28.351c1.965,12.821,8.411,23.1,18.7,30.832,19.124,14.381,44.727,11.414,59.845-2.958,9.183-8.729,18.1-17.739,27.132-26.624a3.052,3.052,0,0,0,.288-.351l-16.907-16.96a4.8,4.8,0,0,1-.545.783c-8.68,8.569-17.311,17.189-26.074,25.672-6.191,5.994-13.793,7.2-21.82,5.21a23.279,23.279,0,0,1-17.292-24.582,21.5,21.5,0,0,1,6.075-13.936q9.912-10.068,19.83-20.13c2.14-2.164,4.338-4.27,6.434-6.329Z" fill="#fff"/>
      <path id="Path_12666" data-name="Path 12666" d="M312.266,1479.28l16.532,16.611,4.448-4.4L316.7,1474.853Z" fill="#fff"/>
      <path id="Path_12667" data-name="Path 12667" d="M376.859,1515.481l-4.565,4.563,16.584,16.62c1.515-1.511,3.066-3.057,4.565-4.553Z" fill="#fff"/>
      <path id="Path_12668" data-name="Path 12668" d="M383.519,1542.127l-16.425-16.885-4.32,4.38,16.553,16.649Z" fill="#fff"/>
    </g>
  </g>
</svg>
