<svg xmlns="http://www.w3.org/2000/svg" width="95.642" height="81.372" viewBox="0 0 95.642 81.372">
  <g id="Group_424" data-name="Group 424" transform="translate(-1131.619 -2827.818)">
    <path id="Path_12702" data-name="Path 12702" d="M1222.872,2835.323l-16.644-6.935a7.521,7.521,0,0,0-5.746,0l-7.991,3.328a1.4,1.4,0,1,0,1.078,2.587l7.991-3.329a4.7,4.7,0,0,1,3.591,0l16.643,6.934a4.227,4.227,0,0,1,2.665,3.868v59.916a4.353,4.353,0,0,1-4.461,4.226h-2.271a1.4,1.4,0,1,0,0,2.8H1220a7.156,7.156,0,0,0,7.263-7.028v-59.916A7.02,7.02,0,0,0,1222.872,2835.323Z" fill="#fff"/>
    <path id="Path_12703" data-name="Path 12703" d="M1211.62,2905.919h-23.54a6.018,6.018,0,0,0,.081-7.857,6.07,6.07,0,0,0,1.53-1.113,6.022,6.022,0,0,1,1.537-9.25,6.023,6.023,0,0,0,.248-8.254,6.124,6.124,0,0,0,1.32-1,6.029,6.029,0,0,0-4.263-10.289h-6.282v-26.38a4.227,4.227,0,0,1,2.664-3.868l2.548-1.061a1.4,1.4,0,0,0-1.077-2.587l-2.549,1.062a7.019,7.019,0,0,0-4.388,6.454v26.38h-5.854c1.949-6.16,1.784-12.588-.491-20.05a5.409,5.409,0,0,0-1.989-2.8,5.49,5.49,0,0,0-8.736,4.707c.438,8.424-3.448,11.324-8.826,15.337a64.455,64.455,0,0,0-5.608,4.539v-1.837a1.4,1.4,0,0,0-1.4-1.4H1133.02a1.4,1.4,0,0,0-1.4,1.4v39.735a1.4,1.4,0,0,0,1.4,1.4h13.524a1.4,1.4,0,0,0,1.4-1.4v-3.525a11.627,11.627,0,0,1,6.493,2.231,7.121,7.121,0,0,0,4.3,1.473h24.708a7.462,7.462,0,0,0,3.263.753h24.908a1.4,1.4,0,1,0,0-2.8Zm-55.477-1.648a14.858,14.858,0,0,0-8.2-2.823v-16.359a1.4,1.4,0,1,0-2.8,0v21.3h-10.722v-36.932h10.722v9.528a1.4,1.4,0,1,0,2.8,0v-5.113a48.009,48.009,0,0,1,7.284-6.273c5.382-4.016,10.465-7.809,9.949-17.728a2.69,2.69,0,0,1,4.28-2.3,2.622,2.622,0,0,1,.966,1.358c2.317,7.6,2.281,13.994-.114,20.123a1.4,1.4,0,0,0,1.3,1.911h16.918a3.225,3.225,0,1,1,0,6.45h-5.755a1.4,1.4,0,1,0,0,2.8h4.188a3.225,3.225,0,1,1,0,6.45h-4.188a1.4,1.4,0,1,0,0,2.8h2.651a3.225,3.225,0,0,1,0,6.451h-4.188a1.4,1.4,0,1,0,0,2.8h2.312a3.226,3.226,0,0,1,2.282,5.5,3.414,3.414,0,0,1-2.141.942l-24.953,0a4.311,4.311,0,0,1-2.6-.9Z" fill="#fff"/>
    <path id="Path_12704" data-name="Path 12704" d="M1208.411,2842.4a5.339,5.339,0,1,0-5.339,5.34A5.345,5.345,0,0,0,1208.411,2842.4Zm-7.876,0a2.537,2.537,0,1,1,2.537,2.538A2.54,2.54,0,0,1,1200.535,2842.4Z" fill="#fff"/>
    <path id="Path_12705" data-name="Path 12705" d="M1203.948,2890.2h-2.513a2.4,2.4,0,0,1-2.4-2.4,1.4,1.4,0,0,0-2.8,0,5.207,5.207,0,0,0,5.057,5.2v3.1a1.4,1.4,0,0,0,2.8,0V2893a5.208,5.208,0,0,0,5.058-5.2v-1.939a4.13,4.13,0,0,0-2.861-3.938l-6.329-2.056a1.335,1.335,0,0,1-.925-1.273v-2.777a1.952,1.952,0,0,1,1.949-1.95h3.415a1.952,1.952,0,0,1,1.949,1.95,1.4,1.4,0,0,0,2.8,0,4.757,4.757,0,0,0-4.751-4.752h-.307v-3.1a1.4,1.4,0,0,0-2.8,0v3.1h-.306a4.758,4.758,0,0,0-4.752,4.752v2.777a4.13,4.13,0,0,0,2.862,3.938l6.328,2.055a1.336,1.336,0,0,1,.926,1.274v1.939a2.4,2.4,0,0,1-2.4,2.4Z" fill="#fff"/>
  </g>
</svg>
