<svg xmlns="http://www.w3.org/2000/svg" width="96.036" height="121.598" viewBox="0 0 96.036 121.598">
  <g id="Group_422" data-name="Group 422" transform="translate(-655.639 -2832.762)">
    <g id="Group_421" data-name="Group 421">
      <path id="Path_12698" data-name="Path 12698" d="M751.357,2939.39l-15.383-26.643a13.759,13.759,0,0,0,4.786-8.667,8.949,8.949,0,0,1,3.41-5.906,13.8,13.8,0,0,0,4.31-16.086,8.951,8.951,0,0,1,0-6.82,13.793,13.793,0,0,0-4.31-16.085,8.952,8.952,0,0,1-3.41-5.907,13.794,13.794,0,0,0-11.776-11.775,8.953,8.953,0,0,1-5.906-3.41,13.792,13.792,0,0,0-16.085-4.31,8.952,8.952,0,0,1-6.82,0,13.794,13.794,0,0,0-16.086,4.31,8.95,8.95,0,0,1-5.906,3.41,13.792,13.792,0,0,0-11.775,11.776,8.958,8.958,0,0,1-3.41,5.906,13.793,13.793,0,0,0-4.311,16.085,8.95,8.95,0,0,1,0,6.82A13.794,13.794,0,0,0,663,2898.174a8.957,8.957,0,0,1,3.41,5.906,13.762,13.762,0,0,0,4.886,8.75l-15.334,26.56a2.375,2.375,0,0,0,2.672,3.482L672,2939.291l3.566,13.308a2.378,2.378,0,0,0,1.984,1.741,2.522,2.522,0,0,0,.311.02,2.375,2.375,0,0,0,2.056-1.188l16.547-28.66a13.646,13.646,0,0,0,3.712-.936,8.952,8.952,0,0,1,6.82,0,13.663,13.663,0,0,0,3.873.955l16.536,28.641a2.374,2.374,0,0,0,2.057,1.188,2.506,2.506,0,0,0,.31-.02,2.378,2.378,0,0,0,1.985-1.741l3.566-13.308,13.366,3.581a2.375,2.375,0,0,0,2.672-3.482Zm-72.691,6.441-2.7-10.064a2.377,2.377,0,0,0-2.909-1.68l-10.122,2.712,12.481-21.617a13.616,13.616,0,0,0,2.761.674,8.949,8.949,0,0,1,5.906,3.41,13.735,13.735,0,0,0,7.142,4.8Zm19.707-26.652a9.029,9.029,0,0,1-10.529-2.821,13.679,13.679,0,0,0-9.024-5.21,9.026,9.026,0,0,1-7.707-7.708,13.683,13.683,0,0,0-5.21-9.023,9.028,9.028,0,0,1-2.821-10.529,13.674,13.674,0,0,0,0-10.419,9.028,9.028,0,0,1,2.821-10.529,13.682,13.682,0,0,0,5.21-9.024,9.029,9.029,0,0,1,7.707-7.708,13.678,13.678,0,0,0,9.024-5.209,9.025,9.025,0,0,1,7.136-3.488,8.934,8.934,0,0,1,3.393.667,13.683,13.683,0,0,0,10.419,0A9.028,9.028,0,0,1,719.321,2841a13.676,13.676,0,0,0,9.023,5.209,9.03,9.03,0,0,1,7.708,7.708,13.677,13.677,0,0,0,5.209,9.024,9.028,9.028,0,0,1,2.822,10.529,13.674,13.674,0,0,0,0,10.419,9.028,9.028,0,0,1-2.822,10.529,13.675,13.675,0,0,0-5.209,9.023,9.029,9.029,0,0,1-7.708,7.708,13.673,13.673,0,0,0-9.023,5.21,9.029,9.029,0,0,1-10.529,2.821,13.674,13.674,0,0,0-10.419,0Zm35.881,14.908a2.375,2.375,0,0,0-2.909,1.68l-2.7,10.064-12.584-21.8a13.728,13.728,0,0,0,7.014-4.768,8.946,8.946,0,0,1,5.906-3.41,13.664,13.664,0,0,0,2.884-.721l12.507,21.664Z" fill="#fff"/>
      <path id="Path_12699" data-name="Path 12699" d="M692.788,2869.892l-7.39,7.39a2.375,2.375,0,0,0,0,3.359l13.86,13.861a2.375,2.375,0,0,0,3.36,0l19.3-19.3a2.375,2.375,0,0,0,0-3.36l-7.39-7.39a2.375,2.375,0,0,0-3.359,0l-10.23,10.23-4.79-4.791a2.375,2.375,0,0,0-3.36,0Zm6.47,9.83a2.377,2.377,0,0,0,3.359,0l10.23-10.23,4.031,4.031-15.94,15.94-10.5-10.5,4.032-4.031Z" fill="#fff"/>
      <path id="Path_12700" data-name="Path 12700" d="M734.536,2879.478a30.887,30.887,0,0,0-19.5-28.715,2.375,2.375,0,0,0-1.751,4.416,26.129,26.129,0,1,1-19.253,0,2.375,2.375,0,1,0-1.751-4.416,30.882,30.882,0,1,0,42.256,28.715Z" fill="#fff"/>
      <path id="Path_12701" data-name="Path 12701" d="M703.657,2853.348a2.376,2.376,0,1,0-1.679-.7A2.382,2.382,0,0,0,703.657,2853.348Z" fill="#fff"/>
    </g>
  </g>
</svg>
