<svg xmlns="http://www.w3.org/2000/svg" width="103.148" height="98.106" viewBox="0 0 103.148 98.106">
  <g id="Group_420" data-name="Group 420" transform="translate(-182.005 -2838.635)">
    <g id="Group_418" data-name="Group 418">
      <path id="Path_12683" data-name="Path 12683" d="M205.185,2892.931a2.846,2.846,0,0,0-2.843-2.843H195.7a2.846,2.846,0,0,0-2.842,2.843v6.639a2.846,2.846,0,0,0,2.842,2.843h6.639a2.846,2.846,0,0,0,2.843-2.843Zm-3.025,6.457h-6.275v-6.275h6.275v6.275Z" fill="#fff"/>
      <path id="Path_12684" data-name="Path 12684" d="M219.857,2892.931a2.847,2.847,0,0,0-2.843-2.843h-6.639a2.847,2.847,0,0,0-2.843,2.843v6.639a2.846,2.846,0,0,0,2.843,2.843h6.639a2.846,2.846,0,0,0,2.843-2.843Zm-3.025,6.457h-6.275v-6.275h6.275Z" fill="#fff"/>
      <path id="Path_12685" data-name="Path 12685" d="M234,2892.931a2.846,2.846,0,0,0-2.843-2.843h-6.638a2.846,2.846,0,0,0-2.843,2.843v6.639a2.846,2.846,0,0,0,2.843,2.843h6.638A2.846,2.846,0,0,0,234,2899.57Zm-3.025,6.457H224.7v-6.275h6.274Z" fill="#fff"/>
      <path id="Path_12686" data-name="Path 12686" d="M205.185,2875.5a2.846,2.846,0,0,0-2.843-2.843H195.7a2.846,2.846,0,0,0-2.842,2.843v6.639a2.846,2.846,0,0,0,2.842,2.843h6.639a2.846,2.846,0,0,0,2.843-2.843Zm-3.025,6.457h-6.275v-6.275h6.275v6.275Z" fill="#fff"/>
      <path id="Path_12687" data-name="Path 12687" d="M219.857,2875.5a2.847,2.847,0,0,0-2.843-2.843h-6.639a2.846,2.846,0,0,0-2.843,2.843v6.639a2.846,2.846,0,0,0,2.843,2.843h6.639a2.847,2.847,0,0,0,2.843-2.843Zm-3.025,6.457h-6.275v-6.275h6.275Z" fill="#fff"/>
      <path id="Path_12688" data-name="Path 12688" d="M234,2875.5a2.846,2.846,0,0,0-2.843-2.843h-6.638a2.846,2.846,0,0,0-2.843,2.843v6.639a2.846,2.846,0,0,0,2.843,2.843h6.638a2.846,2.846,0,0,0,2.843-2.843Zm-3.025,6.457H224.7v-6.275h6.274Z" fill="#fff"/>
      <path id="Path_12689" data-name="Path 12689" d="M248.142,2882.142V2875.5a2.846,2.846,0,0,0-2.843-2.843H238.66a2.846,2.846,0,0,0-2.843,2.843v6.639a2.846,2.846,0,0,0,2.843,2.842H245.3a2.845,2.845,0,0,0,2.843-2.842Zm-3.025-.182h-6.275v-6.275h6.275Z" fill="#fff"/>
      <path id="Path_12690" data-name="Path 12690" d="M252.953,2872.66a2.846,2.846,0,0,0-2.843,2.843v6.639a2.846,2.846,0,0,0,2.843,2.843h6.639a2.846,2.846,0,0,0,2.842-2.843V2875.5a2.846,2.846,0,0,0-2.842-2.843Zm6.457,9.3h-6.275v-6.275h6.275Z" fill="#fff"/>
      <path id="Path_12691" data-name="Path 12691" d="M195.7,2917.308h6.639a2.846,2.846,0,0,0,2.843-2.843v-6.638a2.846,2.846,0,0,0-2.843-2.843H195.7a2.846,2.846,0,0,0-2.842,2.843v6.638A2.846,2.846,0,0,0,195.7,2917.308Zm.182-9.3h6.275v6.275h-6.275Z" fill="#fff"/>
      <path id="Path_12692" data-name="Path 12692" d="M210.375,2917.308h6.639a2.846,2.846,0,0,0,2.843-2.843v-6.638a2.846,2.846,0,0,0-2.843-2.843h-6.639a2.846,2.846,0,0,0-2.843,2.843v6.638a2.846,2.846,0,0,0,2.843,2.843Zm.182-9.3h6.275v6.275h-6.275Z" fill="#fff"/>
      <path id="Path_12693" data-name="Path 12693" d="M231.156,2904.984h-6.638a2.846,2.846,0,0,0-2.843,2.843v6.638a2.846,2.846,0,0,0,2.843,2.843h6.638a2.846,2.846,0,0,0,2.843-2.843v-6.638a2.846,2.846,0,0,0-2.843-2.843Zm-.182,9.3H224.7v-6.274h6.274Z" fill="#fff"/>
      <path id="Path_12694" data-name="Path 12694" d="M235.849,2921.374H192.457a7.435,7.435,0,0,1-7.427-7.427V2901.44a1.512,1.512,0,0,0-3.025,0v12.507a10.464,10.464,0,0,0,10.452,10.452h43.392a1.512,1.512,0,1,0,0-3.025Z" fill="#fff"/>
      <path id="Path_12695" data-name="Path 12695" d="M183.517,2896.507A1.513,1.513,0,0,0,185.03,2895v-30.34h68.034a1.513,1.513,0,0,0,0-3.025H185.03v-5.016a7.435,7.435,0,0,1,7.427-7.427h10.531v3.225a4.231,4.231,0,1,0,8.463,0v-3.225h30.372v3.225a4.231,4.231,0,1,0,8.463,0v-3.225h10.531a7.436,7.436,0,0,1,7.428,7.427v5.016h-8.736a1.513,1.513,0,1,0,0,3.025h8.736v22.28a1.512,1.512,0,1,0,3.024,0v-30.321a10.463,10.463,0,0,0-10.452-10.452H250.286v-3.3a4.231,4.231,0,0,0-8.463,0v3.3H211.451v-3.3a4.231,4.231,0,0,0-8.463,0v3.3H192.457a10.463,10.463,0,0,0-10.452,10.451V2895A1.512,1.512,0,0,0,183.517,2896.507Zm61.331-53.641a1.207,1.207,0,1,1,2.414,0v9.546a1.207,1.207,0,0,1-2.414,0Zm-38.836,0a1.207,1.207,0,1,1,2.414,0v9.546a1.207,1.207,0,0,1-2.414,0Z" fill="#fff"/>
    </g>
    <g id="Group_419" data-name="Group 419">
      <path id="Path_12696" data-name="Path 12696" d="M261.96,2901.679a1.512,1.512,0,0,0-1.513,1.512v5.918a4.69,4.69,0,1,0,3.582,8.648l5.032,5.031a1.513,1.513,0,1,0,2.139-2.139l-5.032-5.031a4.686,4.686,0,0,0-2.7-6.509v-5.918a1.512,1.512,0,0,0-1.512-1.512Zm1.666,11.869a1.666,1.666,0,1,1-1.666-1.666A1.667,1.667,0,0,1,263.626,2913.548Z" fill="#fff"/>
      <path id="Path_12697" data-name="Path 12697" d="M284.332,2907.417a1.513,1.513,0,1,0-2.918.8,20.211,20.211,0,0,1,.656,3.821h-2.4a1.513,1.513,0,1,0,0,3.025h2.4a20.082,20.082,0,0,1-4.828,11.632L275.555,2925a1.512,1.512,0,0,0-2.138,2.139l1.687,1.688a20.082,20.082,0,0,1-11.632,4.828v-2.4a1.512,1.512,0,1,0-3.025,0v2.4a20.087,20.087,0,0,1-11.632-4.828l1.688-1.688a1.513,1.513,0,1,0-2.139-2.139l-1.688,1.688a20.088,20.088,0,0,1-4.828-11.632h2.4a1.513,1.513,0,0,0,0-3.025h-2.4a20.087,20.087,0,0,1,4.828-11.633l1.688,1.688a1.512,1.512,0,1,0,2.139-2.138l-1.688-1.688a20.083,20.083,0,0,1,11.632-4.828v2.4a1.512,1.512,0,1,0,3.025,0v-2.4a20.044,20.044,0,0,1,11.643,4.816l-1.7,1.7a1.512,1.512,0,0,0,2.139,2.138l1.7-1.7a20.586,20.586,0,0,1,1.734,2.337,1.513,1.513,0,0,0,2.552-1.625,23.125,23.125,0,1,0,2.8,6.309Z" fill="#fff"/>
    </g>
  </g>
</svg>
