<svg xmlns="http://www.w3.org/2000/svg" width="242.554" height="116.827" viewBox="0 0 242.554 116.827">
  <g id="Group_413" data-name="Group 413" transform="translate(-1044.953 -1469.504)">
    <g id="Group_411" data-name="Group 411">
      <path id="Path_12669" data-name="Path 12669" d="M1219.767,1583.934c-14.079-3.014-14.094-6.033-12.513-20.07.575-5.1,4.222-7.968,9.266-9.4a48.463,48.463,0,0,0,11.213-4.687c6.274-3.688,8.121-9.947,5.068-16.636-1.718-3.767-4.226-7.166-6.094-10.874-1.334-2.649-3.3-5.313-.632-8.564.743-.905.04-3-.013-4.553a102.969,102.969,0,0,1-.311-10.436c.893-12.961,15.467-22.287,27.654-17.846,11.439,4.168,16.023,11.748,15.142,24.748-.231,3.4-1.56,6.7.721,10.293.871,1.372-.534,5.088-1.977,6.863-4.445,5.469-7.671,11.287-7.048,18.491.178,2.055,1.157,4.7,2.688,5.846,3.511,2.621,7.38,5.711,11.479,6.409,10.121,1.724,13.556,7.951,13.049,18.222-.316,6.408-1.831,9.331-8.057,10.667-8.639,1.854-17.495,2.717-26.276,3.871C1251,1586.554,1228.518,1585.808,1219.767,1583.934Z" fill="#fff"/>
    </g>
    <path id="Path_12670" data-name="Path 12670" d="M1146.533,1530.083l21.932-17.531.619.3c-1.243,3.968-2.486,7.936-3.932,12.555h7.51c5.9,0,11.794.092,17.687-.041,2.41-.054,3.457.56,3.381,3.2-.2,7.036.575,5.987-5.913,6.046-7.324.066-14.648.015-22.661.015l3.921,12.6-.518.448Z" fill="#fff"/>
    <g id="Group_412" data-name="Group 412">
      <path id="Path_12671" data-name="Path 12671" d="M1088.715,1469.5c1.228.176,2.461.328,3.685.53,10.645,1.756,18.061,7.682,22.394,17.492a25.253,25.253,0,0,1,2.1,9.849c.015.876.482,1.05,1.156,1.238a7.124,7.124,0,0,1,3.707,11.4,6.521,6.521,0,0,1-4.788,2.547,6.192,6.192,0,0,1-1.252.047c-1.561-.205-2.352.38-3.047,1.907-1.773,3.9-5.18,6.05-9.183,7.063-2.959.749-6.041,1.016-9.072,1.473-.787.119-1.6.071-2.375.245a2.068,2.068,0,0,0-.99.784,3.459,3.459,0,1,1-4.084-5.176,2.929,2.929,0,0,1,3.554.715,2.759,2.759,0,0,0,3,1.136c2.882-.43,5.825-.578,8.65-1.237,3.48-.811,6.691-2.414,8.273-5.863a34.039,34.039,0,0,0,1.866-6.428,53.757,53.757,0,0,0,1.167-6.369,25.373,25.373,0,0,0-50.484-5.15c-.488,4.007.417,7.767,1.289,11.574q.471,2.052.981,4.1c.2.793-.108,1.162-.9,1.171-1.483.016-2.968.093-4.448.037a7.122,7.122,0,0,1-6.673-5.835,7.031,7.031,0,0,1,4.693-7.928c1.355-.413,1.635-1.025,1.723-2.36a28.5,28.5,0,0,1,20.142-25.452,59.585,59.585,0,0,1,6.81-1.215c.4-.071.8-.2,1.2-.3Z" fill="#fff"/>
      <path id="Path_12672" data-name="Path 12672" d="M1072.022,1536.985a196.214,196.214,0,0,0,11.081,30.761l.286-.039c.094-.99.207-1.979.279-2.97.473-6.559.954-13.117,1.382-19.678a1.833,1.833,0,0,1,.942-1.625c2.285-1.466,2.253-1.462,4.57.023a1.836,1.836,0,0,1,.905,1.647c.5,7.433,1.045,14.863,1.582,22.293a3.9,3.9,0,0,0,.231.612,194.9,194.9,0,0,0,11.14-30.8c.114-.045.195-.112.25-.095,3.874,1.206,7.777,2.329,11.609,3.655a13.159,13.159,0,0,1,8.487,8.582,127.626,127.626,0,0,1,5.428,21.85c.578,3.6.905,7.234,1.314,10.856.315,2.8-1.015,4.273-3.8,4.273q-39.478,0-78.957,0c-2.548,0-3.964-1.347-3.783-3.754a132.159,132.159,0,0,1,6.721-33.053,13.431,13.431,0,0,1,8.794-8.865C1064.25,1539.372,1068.068,1538.237,1072.022,1536.985Z" fill="#fff"/>
      <path id="Path_12673" data-name="Path 12673" d="M1075.115,1493.275a12.817,12.817,0,0,0-2.861,6.892c-1.191,7.877,1.481,14.777,5.621,21.2a25.58,25.58,0,0,0,4.905,5.489c3.114,2.656,6.547,2.72,10.03.623a2.434,2.434,0,0,1,.914-.408c2.15-.229,4.3-.416,6.617-.632a18.946,18.946,0,0,1-7,5.783,12.088,12.088,0,0,1-12.153-1.017,25.22,25.22,0,0,1-8.357-9.495,48.286,48.286,0,0,1-6.207-26.6,17.006,17.006,0,0,1,2.47-8.322,8.255,8.255,0,0,1,5.114-3.736,2.3,2.3,0,0,0,1.083-.53c4.017-4.213,9.134-5.272,14.625-4.888a21.5,21.5,0,0,1,14.831,6.889,20.362,20.362,0,0,1,5.24,13.737,41.1,41.1,0,0,1-2.015,12.664c-.688,2.378-3.588,4.449-6.226,4.6.353-.949.7-1.851,1.024-2.76a29.986,29.986,0,0,0,1.739-14,8.439,8.439,0,0,0-.49-1.981,2.764,2.764,0,0,0-3.081-2.016,21.328,21.328,0,0,0-4.108.835,30.483,30.483,0,0,1-10.4,1.705c-.889-.048-1.775-.145-2.674-.116a11.737,11.737,0,0,0,7.569,1.224,25.811,25.811,0,0,0,3.209-.755c1.105-.294,1.874-.063,2.071.754.24.992-.363,1.434-1.211,1.736a17.039,17.039,0,0,1-19.734-6.2C1075.5,1493.734,1075.331,1493.542,1075.115,1493.275Z" fill="#fff"/>
    </g>
  </g>
</svg>
